<svg xmlns="http://www.w3.org/2000/svg" width="61" height="61" viewBox="0 0 61 61">
  <g id="user_blue" data-name="user blue" transform="translate(-692 -433)">
    <circle id="Elipse_56" data-name="Elipse 56" cx="30.5" cy="30.5" r="30.5" transform="translate(692 433)" fill="#00559c"/>
    <g id="Grupo_877" data-name="Grupo 877" transform="translate(710 445)">
      <g id="Elipse_17" data-name="Elipse 17" transform="translate(3.217)" fill="none" stroke="#fff" stroke-width="3">
        <ellipse cx="8.58" cy="8.58" rx="8.58" ry="8.58" stroke="none"/>
        <ellipse cx="8.58" cy="8.58" rx="7.08" ry="7.08" fill="none"/>
      </g>
      <g id="Rectángulo_61" data-name="Rectángulo 61" transform="translate(0 18.232)" fill="none" stroke="#fff" stroke-width="3">
        <path d="M12,0h.667a12,12,0,0,1,12,12v2.3a2,2,0,0,1-2,2H2a2,2,0,0,1-2-2V12A12,12,0,0,1,12,0Z" stroke="none"/>
        <path d="M12,1.5h.667A10.5,10.5,0,0,1,23.167,12v2.3a.5.5,0,0,1-.5.5H2a.5.5,0,0,1-.5-.5V12A10.5,10.5,0,0,1,12,1.5Z" fill="none"/>
      </g>
    </g>
  </g>
</svg>
