<svg xmlns="http://www.w3.org/2000/svg" width="20.499" height="15.164" viewBox="0 0 20.499 15.164">
  <g id="VER" transform="translate(-439.309 -6954.292)" opacity="0.4">
    <path id="Trazado_217" data-name="Trazado 217" d="M459.688,6961.448a21.57,21.57,0,0,0-3.043-3.7c-1.633-1.579-4.188-3.461-7.086-3.461s-5.452,1.882-7.086,3.461a21.5,21.5,0,0,0-3.043,3.7.809.809,0,0,0,0,.852,21.526,21.526,0,0,0,3.043,3.7c1.633,1.579,4.188,3.461,7.086,3.461,5.612,0,9.946-6.864,10.128-7.156A.81.81,0,0,0,459.688,6961.448Zm-1.709.507a20.479,20.479,0,0,1-3.13,3.5,7.052,7.052,0,0,1-10.58,0,20.555,20.555,0,0,1-3.13-3.5l-.057-.081.057-.081a20.492,20.492,0,0,1,3.13-3.5,7.051,7.051,0,0,1,10.58,0,20.489,20.489,0,0,1,3.13,3.5l.057.081Z" transform="translate(0 0)" fill="#af72a9"/>
    <path id="Trazado_218" data-name="Trazado 218" d="M454.463,6958.849a5.292,5.292,0,1,0,5.292,5.292A5.3,5.3,0,0,0,454.463,6958.849Zm0,8.974a3.682,3.682,0,1,1,3.683-3.682A3.686,3.686,0,0,1,454.463,6967.822Z" transform="translate(-4.905 -2.267)" fill="#af72a9"/>
    <path id="Trazado_219" data-name="Trazado 219" d="M457.968,6965.894a1.75,1.75,0,1,0,1.749,1.75A1.751,1.751,0,0,0,457.968,6965.894Z" transform="translate(-8.409 -5.77)" fill="#af72a9"/>
  </g>
</svg>
