<svg xmlns="http://www.w3.org/2000/svg" xmlns:xlink="http://www.w3.org/1999/xlink" width="57" height="57" viewBox="0 0 57 57">
  <defs>
    <clipPath id="clip-path">
      <rect width="57" height="57" fill="none"/>
    </clipPath>
    <clipPath id="clip-path-2">
      <rect width="41.8" height="41.8" fill="none"/>
    </clipPath>
  </defs>
  <g id="Indicador_Confianza" data-name="Indicador Confianza" clip-path="url(#clip-path)">
    <g id="Grupo_533" data-name="Grupo 533" transform="translate(-624 -280)">
      <g id="Grupo_507" data-name="Grupo 507" transform="translate(624 280)">
        <path id="Trazado_469" data-name="Trazado 469" d="M28.5,0A28.5,28.5,0,1,1,0,28.5,28.5,28.5,0,0,1,28.5,0Z" transform="translate(0)" fill="#00b2a9"/>
      </g>
      <g id="outline-create-24px" transform="translate(631.6 285.7)" clip-path="url(#clip-path-2)">
        <path id="Trazado_472" data-name="Trazado 472" d="M0,0H41.8V41.8H0Z" fill="none"/>
      </g>
    </g>
    <path id="CHECK" d="M17947.379-14452.492l-7.213-4.17a2.5,2.5,0,0,1-.916-3.413,2.5,2.5,0,0,1,3.418-.915l5.48,3.165,11.125-13.259a2.5,2.5,0,0,1,3.525-.307,2.5,2.5,0,0,1,.307,3.521l-12.426,14.811a2.509,2.509,0,0,1-1.773.887,2.376,2.376,0,0,1-.277.016A2.5,2.5,0,0,1,17947.379-14452.492Z" transform="translate(-17922 14492)" fill="#fff"/>
  </g>
</svg>
