<svg xmlns="http://www.w3.org/2000/svg" xmlns:xlink="http://www.w3.org/1999/xlink" width="36" height="36" viewBox="0 0 36 36">
  <defs>
    <clipPath id="clip-path">
      <rect width="36" height="36" fill="none"/>
    </clipPath>
  </defs>
  <g id="iconmonstr-linkedin-5" transform="translate(0)" clip-path="url(#clip-path)">
    <path id="iconmonstr-linkedin-5-2" data-name="iconmonstr-linkedin-5" d="M18,3A15,15,0,1,1,3,18,15.017,15.017,0,0,1,18,3Zm0-3A18,18,0,1,0,36,18,18,18,0,0,0,18,0ZM15,12a1.5,1.5,0,1,1-1.5-1.512A1.505,1.505,0,0,1,15,12Zm0,3H12v9h3Zm4.5,0h-3v9h3V19.708c0-2.583,3-2.822,3,0V24h3V18.962c0-4.926-4.692-4.746-6-2.322V15Z" fill="#00b2a9"/>
  </g>
</svg>
