<svg xmlns="http://www.w3.org/2000/svg" xmlns:xlink="http://www.w3.org/1999/xlink" width="36" height="36" viewBox="0 0 36 36">
  <defs>
    <clipPath id="clip-path">
      <rect width="36" height="36" fill="none"/>
    </clipPath>
  </defs>
  <g id="iconmonstr-twitter-5" clip-path="url(#clip-path)">
    <path id="iconmonstr-twitter-5-2" data-name="iconmonstr-twitter-5" d="M18,3A15,15,0,1,1,3,18,15.017,15.017,0,0,1,18,3Zm0-3A18,18,0,1,0,36,18,18,18,0,0,0,18,0Zm9.75,13.167a7.391,7.391,0,0,1-2.121.582,3.709,3.709,0,0,0,1.625-2.043,7.389,7.389,0,0,1-2.346.9,3.695,3.695,0,0,0-6.292,3.368A10.489,10.489,0,0,1,11,12.111a3.7,3.7,0,0,0,1.143,4.93,3.686,3.686,0,0,1-1.671-.462,3.7,3.7,0,0,0,2.962,3.667,3.7,3.7,0,0,1-1.668.063,3.7,3.7,0,0,0,3.45,2.563A7.432,7.432,0,0,1,9.75,24.4a10.5,10.5,0,0,0,16.156-9.327A7.445,7.445,0,0,0,27.75,13.167Z" fill="#00b2a9"/>
  </g>
</svg>
