<svg id="outline-language-24px" xmlns="http://www.w3.org/2000/svg" width="36" height="36" viewBox="0 0 36 36">
  <path id="Trazado_485" data-name="Trazado 485" d="M0,0H36V36H0Z" fill="none"/>
  <path id="Trazado_486" data-name="Trazado 486" d="M17.318,2A15.333,15.333,0,1,0,32.667,17.333,15.326,15.326,0,0,0,17.318,2Zm10.626,9.2H23.421A24,24,0,0,0,21.3,5.741,12.312,12.312,0,0,1,27.944,11.2ZM17.333,5.128A21.6,21.6,0,0,1,20.262,11.2H14.4A21.6,21.6,0,0,1,17.333,5.128ZM5.465,20.4a11.994,11.994,0,0,1,0-6.133h5.183a25.324,25.324,0,0,0-.215,3.067,25.324,25.324,0,0,0,.215,3.067Zm1.257,3.067h4.523a24,24,0,0,0,2.116,5.459,12.246,12.246,0,0,1-6.639-5.459ZM11.246,11.2H6.723a12.246,12.246,0,0,1,6.639-5.459A24,24,0,0,0,11.246,11.2Zm6.087,18.339A21.6,21.6,0,0,1,14.4,23.467h5.857A21.6,21.6,0,0,1,17.333,29.539ZM20.921,20.4H13.745a22.56,22.56,0,0,1-.245-3.067,22.364,22.364,0,0,1,.245-3.067h7.176a22.364,22.364,0,0,1,.245,3.067A22.56,22.56,0,0,1,20.921,20.4Zm.383,8.525a24,24,0,0,0,2.116-5.459h4.523A12.312,12.312,0,0,1,21.3,28.925ZM24.019,20.4a25.323,25.323,0,0,0,.215-3.067,25.323,25.323,0,0,0-.215-3.067H29.2a11.994,11.994,0,0,1,0,6.133Z" transform="translate(0.667 0.667)" fill="#00b2a9"/>
</svg>
