<svg xmlns="http://www.w3.org/2000/svg" width="36" height="36" viewBox="0 0 36 36">
  <g id="usuario-" transform="translate(-554 -635)" opacity="0.7">
    <circle id="Elipse_90" data-name="Elipse 90" cx="18" cy="18" r="18" transform="translate(554 635)" fill="#6d2077" opacity="0.8"/>
    <g id="Grupo_884" data-name="Grupo 884" transform="translate(564.623 640.902)">
      <g id="Elipse_17" data-name="Elipse 17" transform="translate(1.899)" fill="none" stroke="#fff" stroke-width="2">
        <ellipse cx="5.063" cy="5.063" rx="5.063" ry="5.063" stroke="none"/>
        <ellipse cx="5.063" cy="5.063" rx="4.063" ry="4.063" fill="none"/>
      </g>
      <g id="Rectángulo_61" data-name="Rectángulo 61" transform="translate(0 10.76)" fill="none" stroke="#fff" stroke-width="2">
        <path d="M7.279,0h0a7.279,7.279,0,0,1,7.279,7.279v1.13a1.213,1.213,0,0,1-1.213,1.213H1.213A1.213,1.213,0,0,1,0,8.409V7.279A7.279,7.279,0,0,1,7.279,0Z" stroke="none"/>
        <path d="M7.279,1h0a6.279,6.279,0,0,1,6.279,6.279v.773a.571.571,0,0,1-.571.571H1.571A.571.571,0,0,1,1,8.051V7.279A6.279,6.279,0,0,1,7.279,1Z" fill="none"/>
      </g>
    </g>
  </g>
</svg>
