<svg xmlns="http://www.w3.org/2000/svg" xmlns:xlink="http://www.w3.org/1999/xlink" width="24.666" height="37.304" viewBox="0 0 24.666 37.304">
  <defs>
    <clipPath id="clip-path">
      <rect width="24.667" height="37.304" fill="none"/>
    </clipPath>
  </defs>
  <g id="Contraseña" clip-path="url(#clip-path)">
    <g id="Rectángulo_61" data-name="Rectángulo 61" transform="translate(0 13)" fill="none" stroke="#00afa5" stroke-width="3">
      <rect width="24.667" height="24.304" rx="2" stroke="none"/>
      <rect x="1.5" y="1.5" width="21.667" height="21.304" rx="0.5" fill="none"/>
    </g>
    <g id="Rectángulo_71" data-name="Rectángulo 71" transform="translate(4)" fill="none" stroke="#00afa5" stroke-width="3">
      <path d="M8.333,0h0a8.333,8.333,0,0,1,8.333,8.333v6.582A1.389,1.389,0,0,1,15.278,16.3H1.389A1.389,1.389,0,0,1,0,14.915V8.333A8.333,8.333,0,0,1,8.333,0Z" stroke="none"/>
      <path d="M8.333,1.5h0a6.833,6.833,0,0,1,6.833,6.833v6.145a.325.325,0,0,1-.325.325H1.825a.325.325,0,0,1-.325-.325V8.333A6.833,6.833,0,0,1,8.333,1.5Z" fill="none"/>
    </g>
    <path id="Unión_1" data-name="Unión 1" d="M-9941-24.791v-1.417a3.578,3.578,0,0,1-2-3.212A3.581,3.581,0,0,1-9939.419-33a3.581,3.581,0,0,1,3.578,3.581A3.579,3.579,0,0,1-9938-26.135v1.344a1.5,1.5,0,0,1-1.5,1.5A1.5,1.5,0,0,1-9941-24.791Z" transform="translate(9952 53.768)" fill="#9cdad6"/>
  </g>
</svg>
