<svg xmlns="http://www.w3.org/2000/svg" xmlns:xlink="http://www.w3.org/1999/xlink" width="522" height="145.647" viewBox="0 0 522 145.647">
  <defs>
    <clipPath id="clip-path">
      <rect width="522" height="145.647" fill="none"/>
    </clipPath>
  </defs>
  <g id="Logo_BePartners_2" data-name="Logo BePartners – 2" clip-path="url(#clip-path)">
    <g id="Grupo_784" data-name="Grupo 784">
      <path id="Trazado_643" data-name="Trazado 643" d="M82.37,139.347a34.721,34.721,0,0,0,11.161-10.071A34.721,34.721,0,0,1,82.37,139.347Z" transform="translate(-30.806 -40.19)" fill="none"/>
      <path id="Trazado_644" data-name="Trazado 644" d="M69.878,142.135c.864-.075,1.72-.175,2.566-.312-.845.137-1.7.237-2.567.312Z" transform="translate(-32.352 -38.637)" fill="none"/>
      <path id="Trazado_645" data-name="Trazado 645" d="M60.361,119.558a34.426,34.426,0,0,1,4.283-16.248,34.378,34.378,0,0,0-4.283,16.246Z" transform="translate(-33.529 -43.403)" fill="none"/>
      <path id="Trazado_646" data-name="Trazado 646" d="M63.3,125.8c0,.118.012.231.015.348A34.378,34.378,0,0,1,67.6,109.907l.017-.027q.491-.887,1.032-1.743c.022-.037.048-.072.072-.108.346-.542.7-1.073,1.077-1.593.052-.072.108-.139.16-.21.352-.481.71-.956,1.087-1.418.088-.108.182-.21.272-.317.348-.418.7-.834,1.068-1.235.137-.149.282-.289.421-.435.333-.351.663-.7,1.01-1.037.194-.189.4-.366.6-.551.3-.281.6-.568.917-.837.282-.243.578-.47.868-.7.245-.2.483-.4.734-.594q.821-.625,1.681-1.2a34.353,34.353,0,0,1,14.369-5.5,34.506,34.506,0,0,0-33.174-5.982V68.558A18.558,18.558,0,0,0,41.251,50H36.722a.205.205,0,0,0-.091.038c-.051,0-.1-.008-.147-.008v69.812c0-.114.012-.224.013-.336a34.548,34.548,0,0,0,26.8,33.257V125.8Z" transform="translate(-36.484 -50)" fill="#801e7a"/>
      <path id="Trazado_647" data-name="Trazado 647" d="M60.348,118.209c0-.147.012-.292.015-.439v0C60.36,117.915,60.348,118.06,60.348,118.209Z" transform="translate(-33.531 -41.614)" fill="#801e7a"/>
      <path id="Trazado_648" data-name="Trazado 648" d="M60.348,117.457v.79c0-.148.012-.293.015-.442C60.36,117.689,60.348,117.575,60.348,117.457Z" transform="translate(-33.531 -41.652)" fill="#801e7a"/>
      <path id="Trazado_649" data-name="Trazado 649" d="M94.9,87.413a34.819,34.819,0,0,0-4.87.353,34.478,34.478,0,0,1,12.605,26.687q0,1.611-.145,3.188A34.56,34.56,0,0,1,85.1,144.528q-1.31.742-2.687,1.371t-2.816,1.136q-1.438.509-2.933.891t-3.036.63c-.845.137-1.7.237-2.566.312h0c-.133.011-.265.02-.4.03-.042,0-.085,0-.128.006-.809.06-1.623.1-2.446.1a34.6,34.6,0,0,1-7.735-.871v42.645h0v.237c.072,0,.14-.01.212-.01.01,0,.016.01.026.01h4.53a18.556,18.556,0,0,0,18.557-18.557V154.634A34.549,34.549,0,1,0,94.9,87.413Z" transform="translate(-33.531 -45.37)" fill="#801e7a" opacity="0.6"/>
      <path id="Trazado_650" data-name="Trazado 650" d="M70.529,148.866c.175-.013.353-.02.527-.036.864-.075,1.722-.175,2.567-.312q1.542-.248,3.036-.63T79.592,147q1.438-.507,2.816-1.136t2.687-1.371a34.689,34.689,0,0,0,13.788-14.4A34.318,34.318,0,0,0,102.49,117.6q.143-1.576.145-3.188A34.478,34.478,0,0,0,90.03,87.727a34.353,34.353,0,0,0-14.369,5.5q-.86.576-1.681,1.2c-.251.191-.489.4-.734.594-.29.234-.585.461-.868.7-.315.27-.614.556-.917.837-.2.184-.407.362-.6.551-.347.336-.678.687-1.01,1.037-.139.146-.284.285-.421.435-.367.4-.719.817-1.068,1.235-.09.107-.184.209-.272.317-.376.462-.735.937-1.087,1.418-.052.071-.108.138-.16.21-.374.52-.73,1.052-1.077,1.593-.024.036-.049.071-.072.108q-.541.855-1.032,1.743l-.017.027a34.427,34.427,0,0,0-4.283,16.248c0,.147-.015.292-.015.439v26.169a34.6,34.6,0,0,0,7.735.871C68.906,148.966,69.72,148.925,70.529,148.866ZM82.592,105.86a12.31,12.31,0,1,1-12.31,12.311A12.31,12.31,0,0,1,82.592,105.86Z" transform="translate(-33.531 -45.331)" fill="#801e7a" opacity="0.8"/>
      <path id="Trazado_651" data-name="Trazado 651" d="M69.536,142.131c.134-.01.266-.019.4-.03-.174.016-.352.022-.527.036C69.451,142.134,69.495,142.135,69.536,142.131Z" transform="translate(-32.41 -38.602)" fill="#801e7a" opacity="0.6"/>
      <path id="Trazado_652" data-name="Trazado 652" d="M69.536,142.131c.134-.01.266-.019.4-.03-.174.016-.352.022-.527.036C69.451,142.134,69.495,142.135,69.536,142.131Z" transform="translate(-32.41 -38.602)" fill="#801e7a" opacity="0.8"/>
      <path id="Trazado_653" data-name="Trazado 653" d="M69.536,142.131c.134-.01.266-.019.4-.03-.174.016-.352.022-.527.036C69.451,142.134,69.495,142.135,69.536,142.131Z" transform="translate(-32.41 -38.602)" fill="#801e7a" opacity="0.6"/>
      <path id="Trazado_654" data-name="Trazado 654" d="M69.536,142.131c.134-.01.266-.019.4-.03-.174.016-.352.022-.527.036C69.451,142.134,69.495,142.135,69.536,142.131Z" transform="translate(-32.41 -38.602)" fill="#801e7a" opacity="0.8"/>
    </g>
    <g id="Grupo_789" data-name="Grupo 789" transform="translate(121.902 35.658)">
      <g id="Grupo_785" data-name="Grupo 785" transform="translate(141.515 81.614)" opacity="0.9">
        <path id="Trazado_655" data-name="Trazado 655" d="M281.843,166.395a7.685,7.685,0,0,1-1.363,4.764,4.351,4.351,0,0,1-3.658,1.8,4.512,4.512,0,0,1-3.79-1.733l-.107,1.495h-2.032V154.357H273.1v6.849a4.483,4.483,0,0,1,3.694-1.661,4.38,4.38,0,0,1,3.7,1.781,7.92,7.92,0,0,1,1.345,4.877Zm-2.212-.251a5.97,5.97,0,0,0-.873-3.49,2.888,2.888,0,0,0-2.51-1.232,3.247,3.247,0,0,0-3.143,2.032v5.6a3.335,3.335,0,0,0,3.168,2.032,2.876,2.876,0,0,0,2.475-1.231A6.356,6.356,0,0,0,279.631,166.144Z" transform="translate(-270.893 -154.357)" fill="#3f3e3c"/>
        <path id="Trazado_656" data-name="Trazado 656" d="M287.386,168.882l3.013-9.695h2.367l-5.2,14.93q-1.209,3.228-3.838,3.227l-.418-.036-.826-.155V175.36l.6.048a2.952,2.952,0,0,0,1.752-.454,3.294,3.294,0,0,0,1.034-1.662l.49-1.315-4.614-12.791h2.415Z" transform="translate(-269.55 -153.759)" fill="#3f3e3c"/>
        <path id="Trazado_657" data-name="Trazado 657" d="M299.009,172.614V155.208h4.913a7.905,7.905,0,0,1,4.016,1,6.778,6.778,0,0,1,2.7,2.857,9.31,9.31,0,0,1,.963,4.256v1.111a9.332,9.332,0,0,1-.951,4.316,6.683,6.683,0,0,1-2.714,2.844,8.407,8.407,0,0,1-4.106,1.017Zm2.3-15.529v13.651h2.414a5.254,5.254,0,0,0,4.131-1.651,6.824,6.824,0,0,0,1.475-4.7v-1.017a6.931,6.931,0,0,0-1.392-4.613,4.954,4.954,0,0,0-3.95-1.669Z" transform="translate(-267.414 -154.252)" fill="#3f3e3c"/>
        <path id="Trazado_658" data-name="Trazado 658" d="M321.013,172.148a4.627,4.627,0,0,1-.311-1.363,4.935,4.935,0,0,1-3.681,1.6,4.565,4.565,0,0,1-3.139-1.081,3.5,3.5,0,0,1-1.225-2.744,3.657,3.657,0,0,1,1.536-3.137,7.241,7.241,0,0,1,4.321-1.118h2.152v-1.016a2.482,2.482,0,0,0-.692-1.846,2.79,2.79,0,0,0-2.045-.688,3.222,3.222,0,0,0-1.984.6,1.76,1.76,0,0,0-.8,1.446H312.92a3.051,3.051,0,0,1,.688-1.871,4.682,4.682,0,0,1,1.864-1.428,6.28,6.28,0,0,1,2.589-.526,5.114,5.114,0,0,1,3.5,1.117,4.037,4.037,0,0,1,1.315,3.079v5.953a7.262,7.262,0,0,0,.455,2.833v.192Zm-3.67-1.686a3.888,3.888,0,0,0,1.972-.538,3.251,3.251,0,0,0,1.351-1.4v-2.653h-1.733q-4.066,0-4.065,2.379a2.009,2.009,0,0,0,.693,1.625A2.662,2.662,0,0,0,317.343,170.462Z" transform="translate(-265.725 -153.786)" fill="#3f3e3c"/>
        <path id="Trazado_659" data-name="Trazado 659" d="M328.009,156.4v3.133h2.416v1.709h-2.416v8.031a1.8,1.8,0,0,0,.324,1.166,1.356,1.356,0,0,0,1.1.389,5.37,5.37,0,0,0,1.052-.143v1.782a6.451,6.451,0,0,1-1.7.237,2.755,2.755,0,0,1-2.235-.9,3.852,3.852,0,0,1-.753-2.546v-8.021h-2.355v-1.709H325.8V156.4Z" transform="translate(-264.39 -154.104)" fill="#3f3e3c"/>
        <path id="Trazado_660" data-name="Trazado 660" d="M339.98,172.148a4.62,4.62,0,0,1-.311-1.363,4.935,4.935,0,0,1-3.681,1.6,4.566,4.566,0,0,1-3.139-1.081,3.5,3.5,0,0,1-1.225-2.744,3.657,3.657,0,0,1,1.536-3.137,7.242,7.242,0,0,1,4.321-1.118h2.152v-1.016a2.486,2.486,0,0,0-.692-1.846,2.79,2.79,0,0,0-2.045-.688,3.222,3.222,0,0,0-1.985.6,1.76,1.76,0,0,0-.8,1.446h-2.224a3.052,3.052,0,0,1,.688-1.871,4.683,4.683,0,0,1,1.864-1.428,6.276,6.276,0,0,1,2.589-.526,5.114,5.114,0,0,1,3.5,1.117,4.037,4.037,0,0,1,1.315,3.079v5.953a7.287,7.287,0,0,0,.454,2.833v.192Zm-3.67-1.686a3.888,3.888,0,0,0,1.972-.538,3.252,3.252,0,0,0,1.351-1.4v-2.653H337.9q-4.066,0-4.065,2.379a2.009,2.009,0,0,0,.693,1.625A2.663,2.663,0,0,0,336.31,170.462Z" transform="translate(-263.378 -153.786)" fill="#3f3e3c"/>
        <path id="Trazado_661" data-name="Trazado 661" d="M356.981,167.117a6.4,6.4,0,0,1-2.038,4.261,6.677,6.677,0,0,1-4.56,1.5,6.13,6.13,0,0,1-4.942-2.212,8.887,8.887,0,0,1-1.86-5.917v-1.674a9.918,9.918,0,0,1,.866-4.267,6.477,6.477,0,0,1,2.458-2.827,6.839,6.839,0,0,1,3.681-.987,6.291,6.291,0,0,1,4.448,1.549,6.483,6.483,0,0,1,1.947,4.285h-2.307a5,5,0,0,0-1.3-3.021,3.925,3.925,0,0,0-2.791-.936,4.107,4.107,0,0,0-3.449,1.627,7.472,7.472,0,0,0-1.25,4.63v1.688a7.689,7.689,0,0,0,1.183,4.511A3.828,3.828,0,0,0,350.382,171a4.42,4.42,0,0,0,2.935-.866,4.809,4.809,0,0,0,1.356-3.018Z" transform="translate(-261.898 -154.278)" fill="#3f3e3c"/>
        <path id="Trazado_662" data-name="Trazado 662" d="M364.235,161.2a6.689,6.689,0,0,0-1.087-.083,2.915,2.915,0,0,0-2.953,1.853v9.181h-2.211V159.213h2.152l.036,1.493a3.443,3.443,0,0,1,3.085-1.733,2.255,2.255,0,0,1,.979.167Z" transform="translate(-260.115 -153.786)" fill="#3f3e3c"/>
        <path id="Trazado_663" data-name="Trazado 663" d="M370.584,172.957a5.649,5.649,0,0,1-4.28-1.727,6.409,6.409,0,0,1-1.65-4.62V166.2a7.769,7.769,0,0,1,.735-3.438,5.738,5.738,0,0,1,2.056-2.367,5.18,5.18,0,0,1,2.863-.854,4.847,4.847,0,0,1,3.921,1.661,7.2,7.2,0,0,1,1.4,4.758v.92h-8.762a4.593,4.593,0,0,0,1.118,3.09,3.509,3.509,0,0,0,2.718,1.178,3.863,3.863,0,0,0,1.986-.478,5,5,0,0,0,1.423-1.268l1.351,1.052A5.433,5.433,0,0,1,370.584,172.957Zm-.275-11.595a2.947,2.947,0,0,0-2.248.974,4.737,4.737,0,0,0-1.124,2.731h6.479V164.9a4.225,4.225,0,0,0-.909-2.612A2.781,2.781,0,0,0,370.309,161.363Zm1.075-7.006h2.678l-3.2,3.514-1.781-.006Z" transform="translate(-259.29 -154.357)" fill="#3f3e3c"/>
        <path id="Trazado_664" data-name="Trazado 664" d="M376.217,166.144a7.579,7.579,0,0,1,1.411-4.788,4.8,4.8,0,0,1,7.292-.256v-6.743h2.212v18.362H385.1l-.108-1.387a4.506,4.506,0,0,1-3.694,1.625,4.416,4.416,0,0,1-3.665-1.841,7.664,7.664,0,0,1-1.417-4.805Zm2.213.251a5.737,5.737,0,0,0,.908,3.443,2.935,2.935,0,0,0,2.51,1.243,3.226,3.226,0,0,0,3.072-1.889V163.25a3.251,3.251,0,0,0-3.049-1.828,2.95,2.95,0,0,0-2.534,1.255A6.316,6.316,0,0,0,378.43,166.395Z" transform="translate(-257.859 -154.357)" fill="#3f3e3c"/>
        <path id="Trazado_665" data-name="Trazado 665" d="M388.994,156.274a1.319,1.319,0,0,1,.328-.908A1.234,1.234,0,0,1,390.3,155a1.253,1.253,0,0,1,.98.371,1.308,1.308,0,0,1,.335.908,1.309,1.309,0,1,1-2.617,0Zm2.39,16.366h-2.212V159.706h2.212Z" transform="translate(-256.278 -154.278)" fill="#3f3e3c"/>
        <path id="Trazado_666" data-name="Trazado 666" d="M397.443,156.4v3.133h2.415v1.709h-2.415v8.031a1.8,1.8,0,0,0,.322,1.166,1.359,1.359,0,0,0,1.1.389,5.347,5.347,0,0,0,1.052-.143v1.782a6.447,6.447,0,0,1-1.7.237,2.754,2.754,0,0,1-2.235-.9,3.846,3.846,0,0,1-.754-2.546v-8.021h-2.354v-1.709h2.354V156.4Z" transform="translate(-255.798 -154.104)" fill="#3f3e3c"/>
        <path id="Trazado_667" data-name="Trazado 667" d="M400.653,165.56a7.645,7.645,0,0,1,.747-3.418,5.566,5.566,0,0,1,2.08-2.343,5.655,5.655,0,0,1,3.042-.825A5.455,5.455,0,0,1,410.8,160.8a7.039,7.039,0,0,1,1.632,4.866v.155a7.708,7.708,0,0,1-.723,3.389,5.509,5.509,0,0,1-2.068,2.337,5.737,5.737,0,0,1-3.091.836,5.44,5.44,0,0,1-4.261-1.828,7,7,0,0,1-1.632-4.842Zm2.224.263a5.528,5.528,0,0,0,1,3.455,3.383,3.383,0,0,0,5.349-.018,6.05,6.05,0,0,0,.992-3.7,5.534,5.534,0,0,0-1.009-3.449,3.215,3.215,0,0,0-2.685-1.32,3.172,3.172,0,0,0-2.641,1.3A6.005,6.005,0,0,0,402.877,165.823Z" transform="translate(-254.835 -153.786)" fill="#3f3e3c"/>
        <path id="Trazado_668" data-name="Trazado 668" d="M429.14,164.568H421.6v6.168h8.762v1.878H419.3V155.208h10.937v1.877H421.6v5.606h7.543Z" transform="translate(-252.527 -154.252)" fill="#3f3e3c"/>
        <path id="Trazado_669" data-name="Trazado 669" d="M435.844,163.908l2.869-4.721H441.3l-4.231,6.4,4.362,6.539h-2.558l-2.989-4.842-2.988,4.842h-2.57l4.362-6.539-4.231-6.4h2.558Z" transform="translate(-251.164 -153.759)" fill="#3f3e3c"/>
        <path id="Trazado_670" data-name="Trazado 670" d="M453.1,165.823a7.747,7.747,0,0,1-1.351,4.758,4.331,4.331,0,0,1-3.659,1.8,4.743,4.743,0,0,1-3.705-1.493v6.228h-2.211V159.213h2.02l.107,1.434a4.557,4.557,0,0,1,3.754-1.673,4.411,4.411,0,0,1,3.688,1.758,7.831,7.831,0,0,1,1.356,4.888Zm-2.211-.251a5.719,5.719,0,0,0-.933-3.455,3,3,0,0,0-2.558-1.267,3.251,3.251,0,0,0-3.013,1.781v6.181a3.258,3.258,0,0,0,3.037,1.769,2.99,2.99,0,0,0,2.528-1.261A6.243,6.243,0,0,0,450.887,165.573Z" transform="translate(-249.697 -153.786)" fill="#3f3e3c"/>
        <path id="Trazado_671" data-name="Trazado 671" d="M459.825,172.386a5.649,5.649,0,0,1-4.28-1.727,6.409,6.409,0,0,1-1.65-4.62v-.407a7.77,7.77,0,0,1,.735-3.438,5.739,5.739,0,0,1,2.056-2.367,5.181,5.181,0,0,1,2.863-.854,4.846,4.846,0,0,1,3.921,1.661,7.2,7.2,0,0,1,1.4,4.758v.92h-8.762a4.592,4.592,0,0,0,1.118,3.09,3.509,3.509,0,0,0,2.718,1.178,3.862,3.862,0,0,0,1.986-.478,5,5,0,0,0,1.423-1.268l1.351,1.052A5.433,5.433,0,0,1,459.825,172.386Zm-.275-11.595a2.947,2.947,0,0,0-2.247.974,4.736,4.736,0,0,0-1.124,2.731h6.479v-.167a4.225,4.225,0,0,0-.909-2.612A2.781,2.781,0,0,0,459.55,160.791Z" transform="translate(-248.246 -153.786)" fill="#3f3e3c"/>
        <path id="Trazado_672" data-name="Trazado 672" d="M472.19,161.2a6.714,6.714,0,0,0-1.088-.083,2.913,2.913,0,0,0-2.952,1.853v9.181h-2.213V159.213h2.152l.036,1.493a3.443,3.443,0,0,1,3.085-1.733,2.264,2.264,0,0,1,.98.167Z" transform="translate(-246.756 -153.786)" fill="#3f3e3c"/>
        <path id="Trazado_673" data-name="Trazado 673" d="M473.321,156.274a1.319,1.319,0,0,1,.328-.908,1.233,1.233,0,0,1,.974-.371,1.253,1.253,0,0,1,.98.371,1.309,1.309,0,0,1,.335.908,1.309,1.309,0,1,1-2.617,0Zm2.39,16.366H473.5V159.706h2.211Z" transform="translate(-245.842 -154.278)" fill="#3f3e3c"/>
        <path id="Trazado_674" data-name="Trazado 674" d="M486.623,172.148a4.623,4.623,0,0,1-.311-1.363,4.933,4.933,0,0,1-3.681,1.6,4.566,4.566,0,0,1-3.139-1.081,3.5,3.5,0,0,1-1.224-2.744,3.656,3.656,0,0,1,1.535-3.137,7.241,7.241,0,0,1,4.321-1.118h2.152v-1.016a2.481,2.481,0,0,0-.692-1.846,2.788,2.788,0,0,0-2.045-.688,3.217,3.217,0,0,0-1.984.6,1.759,1.759,0,0,0-.8,1.446H478.53a3.051,3.051,0,0,1,.688-1.871,4.685,4.685,0,0,1,1.865-1.428,6.27,6.27,0,0,1,2.588-.526,5.112,5.112,0,0,1,3.5,1.117,4.037,4.037,0,0,1,1.316,3.079v5.953a7.267,7.267,0,0,0,.454,2.833v.192Zm-3.669-1.686a3.886,3.886,0,0,0,1.971-.538,3.246,3.246,0,0,0,1.351-1.4v-2.653h-1.733q-4.064,0-4.065,2.379a2.012,2.012,0,0,0,.693,1.625A2.664,2.664,0,0,0,482.954,170.462Z" transform="translate(-245.23 -153.786)" fill="#3f3e3c"/>
        <path id="Trazado_675" data-name="Trazado 675" d="M492.539,159.213l.072,1.625a4.714,4.714,0,0,1,3.874-1.864q4.1,0,4.135,4.626v8.547h-2.211v-8.56a2.977,2.977,0,0,0-.639-2.068,2.563,2.563,0,0,0-1.954-.67,3.189,3.189,0,0,0-1.889.574,3.89,3.89,0,0,0-1.266,1.506v9.217h-2.212V159.213Z" transform="translate(-243.723 -153.786)" fill="#3f3e3c"/>
      </g>
      <g id="Grupo_788" data-name="Grupo 788">
        <g id="Grupo_787" data-name="Grupo 787">
          <g id="Grupo_786" data-name="Grupo 786">
            <path id="Trazado_676" data-name="Trazado 676" d="M144.962,145.58V81.731h20.874q10.394,0,15.635,4.3t5.239,12.717a12.973,12.973,0,0,1-2.543,7.915,16.484,16.484,0,0,1-6.929,5.329,14.8,14.8,0,0,1,8.179,5.5,15.792,15.792,0,0,1,3,9.669q0,8.6-5.569,13.506t-15.743,4.912Zm8.42-36.617H166.1a13.327,13.327,0,0,0,8.836-2.768,9.284,9.284,0,0,0,3.311-7.516q0-5.273-3.068-7.669t-9.342-2.4H153.382Zm0,6.754V138.7h13.9q5.873,0,9.274-3.048a10.708,10.708,0,0,0,3.4-8.4q0-11.533-12.542-11.533Z" transform="translate(-144.962 -81.731)" fill="#3f3e3c"/>
            <path id="Trazado_677" data-name="Trazado 677" d="M210.305,144.747q-9.649,0-15.7-6.336t-6.051-16.949v-1.491a28.488,28.488,0,0,1,2.7-12.607,21.05,21.05,0,0,1,7.543-8.682,18.973,18.973,0,0,1,10.5-3.136q9.252,0,14.383,6.1t5.132,17.454v3.376H196.666q.175,7.017,4.1,11.336a12.883,12.883,0,0,0,9.976,4.32,14.13,14.13,0,0,0,7.28-1.754,18.334,18.334,0,0,0,5.219-4.649l4.955,3.859Q222.233,144.748,210.305,144.747ZM209.3,102.211a10.826,10.826,0,0,0-8.245,3.574q-3.331,3.575-4.121,10.02H220.7v-.615q-.351-6.183-3.333-9.581A10.188,10.188,0,0,0,209.3,102.211Z" transform="translate(-139.567 -80.022)" fill="#3f3e3c"/>
            <path id="Trazado_678" data-name="Trazado 678" d="M239.083,120.584v25h-8.42V81.731h23.548q10.481,0,16.424,5.35t5.942,14.164q0,9.3-5.81,14.319t-16.643,5.02Zm0-6.884h15.128q6.754,0,10.35-3.185t3.6-9.2a12.032,12.032,0,0,0-3.6-9.136q-3.6-3.427-9.867-3.559H239.083Z" transform="translate(-134.356 -81.731)" fill="#3f3e3c"/>
            <path id="Trazado_679" data-name="Trazado 679" d="M305.768,143.871a16.959,16.959,0,0,1-1.141-5,18.1,18.1,0,0,1-13.506,5.876,16.739,16.739,0,0,1-11.511-3.968,12.838,12.838,0,0,1-4.5-10.064A13.412,13.412,0,0,1,280.75,119.2q5.633-4.1,15.853-4.1H304.5v-3.728a9.115,9.115,0,0,0-2.545-6.775q-2.542-2.52-7.5-2.521a11.827,11.827,0,0,0-7.28,2.192,6.459,6.459,0,0,0-2.939,5.306H276.08a11.19,11.19,0,0,1,2.519-6.863,17.22,17.22,0,0,1,6.841-5.241,23.025,23.025,0,0,1,9.493-1.929q8.2,0,12.85,4.1t4.823,11.291v21.839a26.686,26.686,0,0,0,1.667,10.392v.7ZM292.3,137.687a14.25,14.25,0,0,0,7.236-1.973,11.94,11.94,0,0,0,4.957-5.13v-9.735h-6.359q-14.911,0-14.91,8.726a7.383,7.383,0,0,0,2.543,5.964A9.769,9.769,0,0,0,292.3,137.687Z" transform="translate(-128.856 -80.022)" fill="#3f3e3c"/>
            <path id="Trazado_680" data-name="Trazado 680" d="M337.534,103.7a24.324,24.324,0,0,0-3.991-.307q-7.983,0-10.833,6.8v33.679H314.6V96.423h7.893l.131,5.481a12.631,12.631,0,0,1,11.313-6.358,8.313,8.313,0,0,1,3.6.614Z" transform="translate(-123.969 -80.022)" fill="#3f3e3c"/>
            <path id="Trazado_681" data-name="Trazado 681" d="M354.038,86.1v11.49h8.856v6.271h-8.856v29.462a6.58,6.58,0,0,0,1.183,4.28q1.183,1.426,4.034,1.427a19.687,19.687,0,0,0,3.859-.527v6.54a23.709,23.709,0,0,1-6.227.871q-5.439,0-8.2-3.289t-2.762-9.341V103.862h-8.639V97.591h8.639V86.1Z" transform="translate(-121.162 -81.19)" fill="#3f3e3c"/>
            <path id="Trazado_682" data-name="Trazado 682" d="M372.982,96.423l.262,5.964a17.288,17.288,0,0,1,14.208-6.841q15.042,0,15.174,16.971v31.355h-8.113v-31.4q-.044-5.131-2.346-7.586T385,102.43a11.7,11.7,0,0,0-6.928,2.1,14.294,14.294,0,0,0-4.649,5.525v33.81h-8.112V96.423Z" transform="translate(-117.694 -80.022)" fill="#3f3e3c"/>
            <path id="Trazado_683" data-name="Trazado 683" d="M426.12,144.747q-9.645,0-15.7-6.336t-6.052-16.949v-1.491a28.491,28.491,0,0,1,2.7-12.607,21.042,21.042,0,0,1,7.543-8.682,18.966,18.966,0,0,1,10.5-3.136q9.252,0,14.384,6.1t5.131,17.454v3.376H412.484q.174,7.017,4.1,11.336a12.886,12.886,0,0,0,9.977,4.32,14.123,14.123,0,0,0,7.279-1.754,18.3,18.3,0,0,0,5.219-4.649l4.955,3.859Q438.051,144.748,426.12,144.747Zm-1.008-42.536a10.819,10.819,0,0,0-8.244,3.574q-3.333,3.575-4.122,10.02h23.768v-.615q-.352-6.183-3.333-9.581A10.191,10.191,0,0,0,425.112,102.211Z" transform="translate(-112.86 -80.022)" fill="#3f3e3c"/>
            <path id="Trazado_684" data-name="Trazado 684" d="M468.286,103.7a24.346,24.346,0,0,0-3.991-.307q-7.982,0-10.832,6.8v33.679H445.35V96.423h7.894l.132,5.481a12.631,12.631,0,0,1,11.313-6.358,8.316,8.316,0,0,1,3.6.614Z" transform="translate(-107.789 -80.022)" fill="#3f3e3c"/>
            <path id="Trazado_685" data-name="Trazado 685" d="M497.04,131.285a5.974,5.974,0,0,0-2.477-5.109q-2.479-1.819-8.64-3.135a40.82,40.82,0,0,1-9.778-3.158,13.9,13.9,0,0,1-5.35-4.385,10.488,10.488,0,0,1-1.733-6.053,12.312,12.312,0,0,1,4.933-9.867q4.934-4.034,12.608-4.034,8.067,0,13.089,4.166a13.233,13.233,0,0,1,5.021,10.657h-8.156a7.324,7.324,0,0,0-2.829-5.745,10.6,10.6,0,0,0-7.126-2.412,11.088,11.088,0,0,0-6.929,1.929,6.075,6.075,0,0,0-2.5,5.042,4.92,4.92,0,0,0,2.325,4.43q2.323,1.492,8.4,2.85a43.792,43.792,0,0,1,9.844,3.245,14.371,14.371,0,0,1,5.592,4.539,11.155,11.155,0,0,1,1.82,6.468,12.141,12.141,0,0,1-5.087,10.195q-5.087,3.84-13.2,3.838a23.885,23.885,0,0,1-10.087-2.017,16.4,16.4,0,0,1-6.863-5.634,13.584,13.584,0,0,1-2.477-7.828h8.112a8.394,8.394,0,0,0,3.267,6.468,12.673,12.673,0,0,0,8.047,2.39,13.08,13.08,0,0,0,7.389-1.864A5.725,5.725,0,0,0,497.04,131.285Z" transform="translate(-105.055 -80.022)" fill="#3f3e3c"/>
          </g>
        </g>
      </g>
    </g>
  </g>
</svg>
