<svg xmlns="http://www.w3.org/2000/svg" xmlns:xlink="http://www.w3.org/1999/xlink" width="30" height="30" viewBox="0 0 30 30">
  <defs>
    <clipPath id="clip-path">
      <rect width="30" height="30" fill="none"/>
    </clipPath>
    <clipPath id="clip-path-2">
      <rect width="22" height="22" fill="none"/>
    </clipPath>
  </defs>
  <g id="Edit_Perfil" data-name="Edit Perfil" clip-path="url(#clip-path)">
    <g id="Grupo_507" data-name="Grupo 507" transform="translate(-643 -1001)">
      <path id="Trazado_469" data-name="Trazado 469" d="M15,0A15,15,0,1,1,0,15,15,15,0,0,1,15,0Z" transform="translate(643 1001)" fill="#00b2a9"/>
    </g>
    <g id="outline-create-24px" transform="translate(4 3)" clip-path="url(#clip-path-2)">
      <path id="Trazado_472" data-name="Trazado 472" d="M0,0H22V22H0Z" fill="none"/>
      <path id="Trazado_473" data-name="Trazado 473" d="M3,16.063V19.5H6.438L16.576,9.362,13.138,5.924Zm2.677,1.6H4.833v-.843l8.305-8.305.843.843ZM19.234,5.411,17.089,3.266a.918.918,0,0,0-1.293,0L14.119,4.943l3.437,3.438L19.234,6.7a.913.913,0,0,0,0-1.293Z" transform="translate(-0.25 -0.25)" fill="#fff"/>
    </g>
  </g>
</svg>
