<svg xmlns="http://www.w3.org/2000/svg" xmlns:xlink="http://www.w3.org/1999/xlink" width="36" height="36" viewBox="0 0 36 36">
  <defs>
    <clipPath id="clip-path">
      <rect width="36" height="36" fill="none"/>
    </clipPath>
  </defs>
  <g id="iconmonstr-facebook-5" clip-path="url(#clip-path)">
    <path id="iconmonstr-facebook-5-2" data-name="iconmonstr-facebook-5" d="M18,3A15,15,0,1,1,3,18,15.017,15.017,0,0,1,18,3Zm0-3A18,18,0,1,0,36,18,18,18,0,0,0,18,0ZM15,15H12v3h3v9h4.5V18h2.73l.27-3h-3V13.75c0-.717.144-1,.837-1H22.5V9H18.894C16.2,9,15,10.188,15,12.462V15Z" fill="#00b2a9"/>
  </g>
</svg>
