<svg xmlns="http://www.w3.org/2000/svg" width="28.877" height="40.432" viewBox="0 0 28.877 40.432">
  <g id="Info_Usuario_Perfil" data-name="Info Usuario Perfil" transform="translate(-554 -535)">
    <g id="Grupo_339" data-name="Grupo 339" transform="translate(0 -13.004)">
      <g id="Rectángulo_61" data-name="Rectángulo 61" transform="translate(554 569.349)" fill="none" stroke="#66d1cb" stroke-width="3">
        <path d="M14.438,0h0A14.438,14.438,0,0,1,28.877,14.438v3.206a1.444,1.444,0,0,1-1.444,1.444H1.444A1.444,1.444,0,0,1,0,17.644V14.438A14.438,14.438,0,0,1,14.438,0Z" stroke="none"/>
        <path d="M14.438,1.5h0A12.938,12.938,0,0,1,27.377,14.438v2.8a.35.35,0,0,1-.35.35H1.85a.35.35,0,0,1-.35-.35v-2.8A12.938,12.938,0,0,1,14.438,1.5Z" fill="none"/>
      </g>
      <g id="Elipse_17" data-name="Elipse 17" transform="translate(557.767 548.004)" fill="none" stroke="#66d1cb" stroke-width="3">
        <ellipse cx="10.044" cy="10.044" rx="10.044" ry="10.044" stroke="none"/>
        <ellipse cx="10.044" cy="10.044" rx="8.544" ry="8.544" fill="none"/>
      </g>
    </g>
  </g>
</svg>
