<svg xmlns="http://www.w3.org/2000/svg" width="423.5" height="70.189" viewBox="0 0 423.5 70.189">
  <g id="LogoLateral" transform="translate(-60.484 -27)">
    <g id="Grupo_809" data-name="Grupo 809" transform="translate(60.484 27)">
      <g id="Grupo_804" data-name="Grupo 804">
        <path id="Trazado_735" data-name="Trazado 735" d="M106.37,111.129a16.733,16.733,0,0,0,5.379-4.853A16.733,16.733,0,0,1,106.37,111.129Z" transform="translate(-81.52 -63.344)" fill="none"/>
        <path id="Trazado_736" data-name="Trazado 736" d="M93.878,118.974c.416-.036.829-.084,1.236-.151-.407.066-.82.114-1.237.151Z" transform="translate(-75.793 -69.096)" fill="none"/>
        <path id="Trazado_737" data-name="Trazado 737" d="M84.361,88.14a16.591,16.591,0,0,1,2.064-7.83,16.567,16.567,0,0,0-2.064,7.829Z" transform="translate(-71.43 -51.44)" fill="none"/>
        <path id="Trazado_738" data-name="Trazado 738" d="M73.408,63.531c0,.057.006.112.007.168a16.567,16.567,0,0,1,2.064-7.829l.008-.013q.236-.427.5-.84c.011-.018.023-.035.035-.052.167-.261.338-.517.519-.768.025-.035.052-.067.077-.1.17-.232.342-.461.524-.683.042-.052.088-.1.131-.153.168-.2.337-.4.514-.6.066-.072.136-.139.2-.21.16-.169.32-.338.487-.5.094-.091.193-.177.29-.265.146-.135.29-.273.442-.4.136-.117.278-.226.418-.339.118-.1.233-.194.354-.286q.4-.3.81-.58a16.555,16.555,0,0,1,6.925-2.65,16.629,16.629,0,0,0-15.987-2.883V35.943A8.943,8.943,0,0,0,62.781,27H60.6a.1.1,0,0,0-.044.018c-.024,0-.047,0-.071,0V60.658c0-.055.006-.108.006-.162A16.649,16.649,0,0,0,73.408,76.523V63.531Z" transform="translate(-60.484 -27)" fill="#8a4d92"/>
        <path id="Trazado_739" data-name="Trazado 739" d="M84.348,94.98c0-.071.006-.141.007-.212h0C84.354,94.838,84.348,94.908,84.348,94.98Z" transform="translate(-71.424 -58.068)" fill="#8a4d92"/>
        <path id="Trazado_740" data-name="Trazado 740" d="M84.348,94.457v.381c0-.071.006-.141.007-.213C84.354,94.569,84.348,94.514,84.348,94.457Z" transform="translate(-71.424 -57.926)" fill="#8a4d92"/>
        <path id="Trazado_741" data-name="Trazado 741" d="M101,64.413a16.78,16.78,0,0,0-2.347.17,16.615,16.615,0,0,1,6.075,12.861q0,.777-.07,1.536a16.655,16.655,0,0,1-8.383,12.957q-.631.357-1.295.661t-1.357.548q-.693.245-1.413.429t-1.463.3c-.407.066-.82.114-1.236.151h0l-.192.015-.062,0c-.39.029-.782.048-1.179.048a16.675,16.675,0,0,1-3.727-.42v20.551h0v.114c.035,0,.068,0,.1,0,0,0,.008,0,.012,0h2.183a8.943,8.943,0,0,0,8.943-8.943V96.807A16.65,16.65,0,1,0,101,64.413Z" transform="translate(-71.424 -44.152)" fill="#8a4d92" opacity="0.6"/>
        <path id="Trazado_742" data-name="Trazado 742" d="M89.254,94.191c.084-.006.17-.01.254-.017.416-.036.83-.084,1.237-.151q.743-.119,1.463-.3t1.413-.429q.693-.245,1.357-.548t1.295-.661a16.717,16.717,0,0,0,6.645-6.941,16.538,16.538,0,0,0,1.738-6.016q.069-.76.07-1.536a16.615,16.615,0,0,0-6.075-12.861,16.555,16.555,0,0,0-6.925,2.65q-.414.278-.81.58c-.121.092-.236.191-.354.286-.14.113-.282.222-.418.339-.152.13-.3.268-.442.4-.1.089-.2.174-.29.265-.167.162-.327.331-.487.5-.067.07-.137.138-.2.21-.177.193-.347.394-.514.6-.043.051-.089.1-.131.153-.181.223-.354.452-.524.683-.025.034-.052.067-.077.1-.18.251-.352.507-.519.768-.011.017-.024.034-.035.052q-.261.412-.5.84l-.008.013A16.59,16.59,0,0,0,84.355,81c0,.071-.007.141-.007.212V93.819a16.675,16.675,0,0,0,3.727.42C88.472,94.239,88.865,94.219,89.254,94.191Zm5.813-20.725A5.932,5.932,0,1,1,89.135,79.4,5.932,5.932,0,0,1,95.067,73.465Z" transform="translate(-71.424 -44.296)" fill="#8a4d92" opacity="0.8"/>
        <path id="Trazado_743" data-name="Trazado 743" d="M93.47,119.116l.192-.015c-.084.008-.17.011-.254.017Z" transform="translate(-75.578 -69.224)" fill="#8a4d92" opacity="0.6"/>
        <path id="Trazado_744" data-name="Trazado 744" d="M93.47,119.116l.192-.015c-.084.008-.17.011-.254.017Z" transform="translate(-75.578 -69.224)" fill="#8a4d92" opacity="0.8"/>
        <path id="Trazado_745" data-name="Trazado 745" d="M93.47,119.116l.192-.015c-.084.008-.17.011-.254.017Z" transform="translate(-75.578 -69.224)" fill="#8a4d92" opacity="0.6"/>
        <path id="Trazado_746" data-name="Trazado 746" d="M93.47,119.116l.192-.015c-.084.008-.17.011-.254.017Z" transform="translate(-75.578 -69.224)" fill="#8a4d92" opacity="0.8"/>
      </g>
      <g id="Grupo_808" data-name="Grupo 808" transform="translate(58.746 17.184)">
        <g id="Grupo_807" data-name="Grupo 807">
          <g id="Grupo_806" data-name="Grupo 806">
            <g id="Grupo_805" data-name="Grupo 805">
              <path id="Trazado_747" data-name="Trazado 747" d="M168.962,89.5V58.731h10.059q5.009,0,7.535,2.071a7.467,7.467,0,0,1,2.525,6.129,6.252,6.252,0,0,1-1.226,3.814,7.944,7.944,0,0,1-3.339,2.568,7.133,7.133,0,0,1,3.941,2.653,7.611,7.611,0,0,1,1.448,4.659,8.231,8.231,0,0,1-2.684,6.509q-2.684,2.367-7.587,2.367Zm4.058-17.646h6.128a6.423,6.423,0,0,0,4.258-1.334A4.474,4.474,0,0,0,185,66.9a4.4,4.4,0,0,0-1.478-3.7,7.268,7.268,0,0,0-4.5-1.155h-6Zm0,3.255V86.183h6.7a6.45,6.45,0,0,0,4.469-1.469,5.16,5.16,0,0,0,1.638-4.047q0-5.558-6.044-5.558Z" transform="translate(-168.962 -58.731)" fill="#3f3e3c"/>
              <path id="Trazado_748" data-name="Trazado 748" d="M223.036,96.256A9.991,9.991,0,0,1,215.47,93.2a11.335,11.335,0,0,1-2.916-8.168v-.719a13.729,13.729,0,0,1,1.3-6.076,10.144,10.144,0,0,1,3.635-4.184,9.143,9.143,0,0,1,5.062-1.511,8.562,8.562,0,0,1,6.931,2.937q2.474,2.938,2.473,8.411v1.627H216.463a8.126,8.126,0,0,0,1.977,5.463,6.208,6.208,0,0,0,4.807,2.082,6.81,6.81,0,0,0,3.508-.845,8.836,8.836,0,0,0,2.515-2.24l2.388,1.86A9.6,9.6,0,0,1,223.036,96.256Zm-.486-20.5a5.217,5.217,0,0,0-3.973,1.722,8.377,8.377,0,0,0-1.986,4.829h11.454v-.3a7.442,7.442,0,0,0-1.606-4.617A4.909,4.909,0,0,0,222.55,75.757Z" transform="translate(-188.947 -65.064)" fill="#3f3e3c"/>
              <path id="Trazado_749" data-name="Trazado 749" d="M258.721,77.455V89.5h-4.058V58.731h11.348q5.051,0,7.915,2.578a8.739,8.739,0,0,1,2.864,6.826,8.627,8.627,0,0,1-2.8,6.9q-2.8,2.42-8.02,2.419Zm0-3.318h7.29A7.291,7.291,0,0,0,271,72.6a5.614,5.614,0,0,0,1.733-4.436,5.8,5.8,0,0,0-1.733-4.4,6.831,6.831,0,0,0-4.755-1.715h-7.523Z" transform="translate(-208.252 -58.731)" fill="#3f3e3c"/>
              <path id="Trazado_750" data-name="Trazado 750" d="M313.886,95.834a8.174,8.174,0,0,1-.55-2.409,8.724,8.724,0,0,1-6.509,2.832,8.067,8.067,0,0,1-5.547-1.912,6.187,6.187,0,0,1-2.167-4.85,6.463,6.463,0,0,1,2.716-5.548q2.715-1.976,7.64-1.976h3.8v-1.8a4.392,4.392,0,0,0-1.227-3.265,4.926,4.926,0,0,0-3.613-1.215,5.7,5.7,0,0,0-3.508,1.057,3.113,3.113,0,0,0-1.416,2.557h-3.93A5.393,5.393,0,0,1,300.794,76a8.3,8.3,0,0,1,3.3-2.526,11.1,11.1,0,0,1,4.575-.93,9.039,9.039,0,0,1,6.193,1.976,7.129,7.129,0,0,1,2.324,5.441V90.487a12.861,12.861,0,0,0,.8,5.008v.338Zm-6.488-2.98a6.867,6.867,0,0,0,3.487-.951,5.754,5.754,0,0,0,2.389-2.472V84.739h-3.065q-7.186,0-7.185,4.205a3.558,3.558,0,0,0,1.225,2.874A4.708,4.708,0,0,0,307.4,92.854Z" transform="translate(-228.63 -65.064)" fill="#3f3e3c"/>
              <path id="Trazado_751" data-name="Trazado 751" d="M349.651,76.476a11.722,11.722,0,0,0-1.923-.148,5.153,5.153,0,0,0-5.221,3.276v16.23H338.6V72.968h3.8l.063,2.641a6.087,6.087,0,0,1,5.452-3.064,4.006,4.006,0,0,1,1.733.3Z" transform="translate(-246.732 -65.064)" fill="#3f3e3c"/>
              <path id="Trazado_752" data-name="Trazado 752" d="M369.358,63.1v5.537h4.268V71.66h-4.268v14.2a3.171,3.171,0,0,0,.57,2.063,2.4,2.4,0,0,0,1.944.688,9.488,9.488,0,0,0,1.86-.254v3.152a11.426,11.426,0,0,1-3,.42,4.868,4.868,0,0,1-3.952-1.585,6.811,6.811,0,0,1-1.331-4.5V71.66h-4.163V68.638h4.163V63.1Z" transform="translate(-257.133 -60.734)" fill="#3f3e3c"/>
              <path id="Trazado_753" data-name="Trazado 753" d="M393.006,72.968l.126,2.874a8.331,8.331,0,0,1,6.847-3.3q7.249,0,7.313,8.178v15.11h-3.91V80.7a5.261,5.261,0,0,0-1.131-3.656,4.53,4.53,0,0,0-3.455-1.183,5.64,5.64,0,0,0-3.339,1.014,6.889,6.889,0,0,0-2.24,2.663V95.834h-3.909V72.968Z" transform="translate(-269.979 -65.064)" fill="#3f3e3c"/>
              <path id="Trazado_754" data-name="Trazado 754" d="M438.852,96.256a9.99,9.99,0,0,1-7.565-3.053,11.336,11.336,0,0,1-2.917-8.168v-.719a13.729,13.729,0,0,1,1.3-6.076,10.141,10.141,0,0,1,3.635-4.184,9.14,9.14,0,0,1,5.061-1.511,8.565,8.565,0,0,1,6.932,2.937q2.473,2.938,2.473,8.411v1.627H432.28a8.121,8.121,0,0,0,1.976,5.463,6.21,6.21,0,0,0,4.808,2.082,6.806,6.806,0,0,0,3.508-.845,8.822,8.822,0,0,0,2.515-2.24l2.388,1.86A9.6,9.6,0,0,1,438.852,96.256Zm-.486-20.5a5.214,5.214,0,0,0-3.973,1.722,8.373,8.373,0,0,0-1.986,4.829h11.454v-.3a7.452,7.452,0,0,0-1.606-4.617A4.911,4.911,0,0,0,438.366,75.757Z" transform="translate(-287.888 -65.064)" fill="#3f3e3c"/>
              <path id="Trazado_755" data-name="Trazado 755" d="M480.4,76.476a11.734,11.734,0,0,0-1.924-.148,5.153,5.153,0,0,0-5.22,3.276v16.23H469.35V72.968h3.8l.063,2.641a6.087,6.087,0,0,1,5.452-3.064,4.008,4.008,0,0,1,1.733.3Z" transform="translate(-306.675 -65.064)" fill="#3f3e3c"/>
              <path id="Trazado_756" data-name="Trazado 756" d="M505.7,89.768a2.879,2.879,0,0,0-1.194-2.462,11.5,11.5,0,0,0-4.164-1.511,19.673,19.673,0,0,1-4.712-1.522,6.7,6.7,0,0,1-2.578-2.113,5.054,5.054,0,0,1-.835-2.917,5.934,5.934,0,0,1,2.377-4.755,9.286,9.286,0,0,1,6.076-1.944,9.556,9.556,0,0,1,6.308,2.008,6.377,6.377,0,0,1,2.42,5.136h-3.931a3.53,3.53,0,0,0-1.363-2.768,5.107,5.107,0,0,0-3.434-1.162,5.343,5.343,0,0,0-3.339.93,2.927,2.927,0,0,0-1.2,2.43,2.371,2.371,0,0,0,1.12,2.135,13.764,13.764,0,0,0,4.047,1.373,21.1,21.1,0,0,1,4.744,1.564,6.926,6.926,0,0,1,2.695,2.187,5.376,5.376,0,0,1,.877,3.117,5.851,5.851,0,0,1-2.452,4.913,10.278,10.278,0,0,1-6.361,1.849,11.511,11.511,0,0,1-4.861-.972,7.9,7.9,0,0,1-3.307-2.715A6.546,6.546,0,0,1,491.44,88.8h3.909a4.045,4.045,0,0,0,1.574,3.117,6.107,6.107,0,0,0,3.878,1.152,6.3,6.3,0,0,0,3.561-.9A2.759,2.759,0,0,0,505.7,89.768Z" transform="translate(-316.802 -65.064)" fill="#3f3e3c"/>
            </g>
          </g>
        </g>
      </g>
    </g>
    <g id="Grupo_810" data-name="Grupo 810" transform="translate(335.542 57.153)" opacity="0.9">
      <path id="Trazado_757" data-name="Trazado 757" d="M574.72,89.636a4.442,4.442,0,0,1-.787,2.753,2.515,2.515,0,0,1-2.114,1.039,2.607,2.607,0,0,1-2.19-1l-.062.863h-1.174V82.68h1.278v3.958a2.589,2.589,0,0,1,2.134-.96,2.531,2.531,0,0,1,2.138,1.029,4.576,4.576,0,0,1,.777,2.818Zm-1.278-.145a3.451,3.451,0,0,0-.5-2.017,1.669,1.669,0,0,0-1.45-.712,1.876,1.876,0,0,0-1.816,1.174v3.233a1.928,1.928,0,0,0,1.83,1.174,1.661,1.661,0,0,0,1.43-.712A3.673,3.673,0,0,0,573.442,89.491Z" transform="translate(-568.393 -82.68)" fill="#3f3e3c"/>
      <path id="Trazado_758" data-name="Trazado 758" d="M584.664,94.072l1.741-5.6h1.368l-3,8.627q-.7,1.865-2.218,1.865l-.242-.021-.477-.09V97.816l.346.028a1.7,1.7,0,0,0,1.012-.263,1.9,1.9,0,0,0,.6-.96l.283-.76L581.4,88.47h1.4Z" transform="translate(-574.357 -85.334)" fill="#3f3e3c"/>
      <path id="Trazado_759" data-name="Trazado 759" d="M602.1,93.757V83.7h2.839a4.574,4.574,0,0,1,2.321.58,3.928,3.928,0,0,1,1.557,1.651,5.371,5.371,0,0,1,.556,2.459v.642a5.389,5.389,0,0,1-.549,2.493,3.856,3.856,0,0,1-1.568,1.644,4.854,4.854,0,0,1-2.372.587Zm1.326-8.972v7.888h1.4a3.037,3.037,0,0,0,2.387-.954A3.945,3.945,0,0,0,608.066,89v-.588a4,4,0,0,0-.805-2.665,2.861,2.861,0,0,0-2.283-.965Z" transform="translate(-583.848 -83.148)" fill="#3f3e3c"/>
      <path id="Trazado_760" data-name="Trazado 760" d="M623.3,95.827a2.66,2.66,0,0,1-.179-.787,2.851,2.851,0,0,1-2.128.926,2.636,2.636,0,0,1-1.813-.625,2.021,2.021,0,0,1-.708-1.585,2.114,2.114,0,0,1,.887-1.814,4.189,4.189,0,0,1,2.5-.646H623.1v-.587a1.436,1.436,0,0,0-.4-1.067,1.612,1.612,0,0,0-1.182-.4,1.863,1.863,0,0,0-1.147.346,1.016,1.016,0,0,0-.462.836h-1.285a1.764,1.764,0,0,1,.4-1.081,2.7,2.7,0,0,1,1.077-.825,3.627,3.627,0,0,1,1.5-.3,2.955,2.955,0,0,1,2.024.646,2.33,2.33,0,0,1,.76,1.778v3.44a4.2,4.2,0,0,0,.263,1.637v.11Zm-2.12-.974a2.243,2.243,0,0,0,1.139-.311,1.88,1.88,0,0,0,.78-.808V92.2h-1q-2.349,0-2.349,1.374a1.162,1.162,0,0,0,.4.94A1.539,1.539,0,0,0,621.178,94.853Z" transform="translate(-591.351 -85.218)" fill="#3f3e3c"/>
      <path id="Trazado_761" data-name="Trazado 761" d="M634.041,85.129v1.809h1.4v.988h-1.4v4.641a1.04,1.04,0,0,0,.187.674.786.786,0,0,0,.636.225,3.1,3.1,0,0,0,.608-.083v1.03a3.725,3.725,0,0,1-.981.137,1.59,1.59,0,0,1-1.292-.518,2.226,2.226,0,0,1-.435-1.471V87.926H631.4v-.988h1.36V85.129Z" transform="translate(-597.28 -83.803)" fill="#3f3e3c"/>
      <path id="Trazado_762" data-name="Trazado 762" d="M646.04,95.827a2.659,2.659,0,0,1-.179-.787,2.851,2.851,0,0,1-2.128.926,2.636,2.636,0,0,1-1.813-.625,2.021,2.021,0,0,1-.708-1.585,2.115,2.115,0,0,1,.887-1.814,4.19,4.19,0,0,1,2.5-.646h1.243v-.587a1.436,1.436,0,0,0-.4-1.067,1.612,1.612,0,0,0-1.182-.4,1.862,1.862,0,0,0-1.146.346,1.016,1.016,0,0,0-.463.836h-1.285a1.76,1.76,0,0,1,.4-1.081,2.7,2.7,0,0,1,1.077-.825,3.627,3.627,0,0,1,1.5-.3,2.955,2.955,0,0,1,2.024.646,2.33,2.33,0,0,1,.76,1.778v3.44a4.2,4.2,0,0,0,.263,1.637v.11Zm-2.12-.974a2.243,2.243,0,0,0,1.139-.311,1.881,1.881,0,0,0,.78-.808V92.2h-1q-2.349,0-2.349,1.374a1.163,1.163,0,0,0,.4.94A1.54,1.54,0,0,0,643.92,94.853Z" transform="translate(-601.777 -85.218)" fill="#3f3e3c"/>
      <path id="Trazado_763" data-name="Trazado 763" d="M663.291,90.449a3.7,3.7,0,0,1-1.178,2.462,3.861,3.861,0,0,1-2.635.866,3.543,3.543,0,0,1-2.856-1.278,5.139,5.139,0,0,1-1.074-3.419v-.967a5.726,5.726,0,0,1,.5-2.466,3.737,3.737,0,0,1,1.42-1.634,3.948,3.948,0,0,1,2.127-.57,3.638,3.638,0,0,1,2.57.894,3.748,3.748,0,0,1,1.126,2.477h-1.333a2.888,2.888,0,0,0-.749-1.746,2.267,2.267,0,0,0-1.613-.54,2.373,2.373,0,0,0-1.993.941,4.314,4.314,0,0,0-.722,2.675v.975a4.441,4.441,0,0,0,.683,2.606,2.211,2.211,0,0,0,1.914.968,2.55,2.55,0,0,0,1.7-.5,2.775,2.775,0,0,0,.784-1.744Z" transform="translate(-608.349 -83.031)" fill="#3f3e3c"/>
      <path id="Trazado_764" data-name="Trazado 764" d="M676.431,89.5a3.81,3.81,0,0,0-.629-.049,1.684,1.684,0,0,0-1.706,1.071v5.305h-1.278V88.353h1.243l.021.864a1.991,1.991,0,0,1,1.782-1,1.3,1.3,0,0,1,.566.1Z" transform="translate(-616.267 -85.218)" fill="#3f3e3c"/>
      <path id="Trazado_765" data-name="Trazado 765" d="M684.242,93.428a3.266,3.266,0,0,1-2.473-1,3.7,3.7,0,0,1-.953-2.669v-.235a4.485,4.485,0,0,1,.425-1.986,3.312,3.312,0,0,1,1.188-1.368,2.991,2.991,0,0,1,1.654-.494,2.8,2.8,0,0,1,2.265.96,4.158,4.158,0,0,1,.808,2.749v.532h-5.063a2.655,2.655,0,0,0,.646,1.785,2.028,2.028,0,0,0,1.571.68,2.221,2.221,0,0,0,1.147-.276,2.886,2.886,0,0,0,.822-.732l.78.608A3.138,3.138,0,0,1,684.242,93.428Zm-.159-6.7a1.7,1.7,0,0,0-1.3.563,2.735,2.735,0,0,0-.649,1.579h3.744v-.1a2.44,2.44,0,0,0-.525-1.51A1.607,1.607,0,0,0,684.083,86.728Zm.622-4.048h1.547L684.4,84.711l-1.029,0Z" transform="translate(-619.933 -82.68)" fill="#3f3e3c"/>
      <path id="Trazado_766" data-name="Trazado 766" d="M694.68,89.491a4.376,4.376,0,0,1,.816-2.766,2.773,2.773,0,0,1,4.213-.149v-3.9h1.278V93.289h-1.174l-.062-.8a2.6,2.6,0,0,1-2.134.939,2.552,2.552,0,0,1-2.117-1.064,4.428,4.428,0,0,1-.819-2.777Zm1.278.145a3.31,3.31,0,0,0,.525,1.989,1.7,1.7,0,0,0,1.45.719,1.864,1.864,0,0,0,1.775-1.091V87.819a1.878,1.878,0,0,0-1.761-1.057,1.7,1.7,0,0,0-1.464.725A3.647,3.647,0,0,0,695.958,89.636Z" transform="translate(-626.289 -82.68)" fill="#3f3e3c"/>
      <path id="Trazado_767" data-name="Trazado 767" d="M710,84.184a.764.764,0,0,1,.19-.525.713.713,0,0,1,.563-.214.725.725,0,0,1,.567.214.756.756,0,0,1,.193.525.73.73,0,0,1-.193.518.737.737,0,0,1-.567.207.725.725,0,0,1-.563-.207A.737.737,0,0,1,710,84.184Zm1.382,9.456H710.1V86.166h1.279Z" transform="translate(-633.312 -83.031)" fill="#3f3e3c"/>
      <path id="Trazado_768" data-name="Trazado 768" d="M717.293,85.129v1.809h1.4v.988h-1.4v4.641a1.036,1.036,0,0,0,.187.674.786.786,0,0,0,.635.225,3.1,3.1,0,0,0,.608-.083v1.03a3.728,3.728,0,0,1-.981.137,1.59,1.59,0,0,1-1.292-.518,2.223,2.223,0,0,1-.435-1.471V87.926h-1.361v-.988h1.361V85.129Z" transform="translate(-635.447 -83.803)" fill="#3f3e3c"/>
      <path id="Trazado_769" data-name="Trazado 769" d="M723.979,92.021a4.42,4.42,0,0,1,.432-1.976,3.228,3.228,0,0,1,1.2-1.354,3.275,3.275,0,0,1,1.758-.477,3.152,3.152,0,0,1,2.469,1.057,4.065,4.065,0,0,1,.943,2.811v.09a4.447,4.447,0,0,1-.418,1.958,3.174,3.174,0,0,1-1.195,1.351,3.311,3.311,0,0,1-1.786.483,3.145,3.145,0,0,1-2.463-1.057,4.047,4.047,0,0,1-.943-2.8Zm1.285.152a3.193,3.193,0,0,0,.577,2,1.955,1.955,0,0,0,3.091-.01,3.5,3.5,0,0,0,.573-2.138,3.192,3.192,0,0,0-.583-1.992,1.856,1.856,0,0,0-1.551-.764,1.835,1.835,0,0,0-1.526.753A3.469,3.469,0,0,0,725.264,92.173Z" transform="translate(-639.721 -85.218)" fill="#3f3e3c"/>
      <path id="Trazado_770" data-name="Trazado 770" d="M752.024,89.108h-4.359v3.564h5.063v1.084h-6.389V83.7h6.32v1.085h-4.994v3.24h4.359Z" transform="translate(-649.972 -83.148)" fill="#3f3e3c"/>
      <path id="Trazado_771" data-name="Trazado 771" d="M762.744,91.2,764.4,88.47h1.492l-2.445,3.7,2.521,3.778h-1.478l-1.727-2.8-1.727,2.8h-1.485l2.521-3.778-2.446-3.7h1.478Z" transform="translate(-656.03 -85.334)" fill="#3f3e3c"/>
      <path id="Trazado_772" data-name="Trazado 772" d="M780.075,92.173a4.472,4.472,0,0,1-.78,2.749,2.5,2.5,0,0,1-2.114,1.043,2.739,2.739,0,0,1-2.141-.863v3.6h-1.278V88.353h1.168l.062.829a2.634,2.634,0,0,1,2.169-.967,2.549,2.549,0,0,1,2.131,1.015,4.525,4.525,0,0,1,.784,2.825Zm-1.278-.145a3.3,3.3,0,0,0-.539-2,1.736,1.736,0,0,0-1.478-.732,1.879,1.879,0,0,0-1.74,1.029V93.9a1.882,1.882,0,0,0,1.754,1.022,1.728,1.728,0,0,0,1.461-.728A3.607,3.607,0,0,0,778.8,92.028Z" transform="translate(-662.544 -85.218)" fill="#3f3e3c"/>
      <path id="Trazado_773" data-name="Trazado 773" d="M791.245,95.965a3.266,3.266,0,0,1-2.473-1,3.7,3.7,0,0,1-.953-2.669v-.235a4.485,4.485,0,0,1,.425-1.986,3.309,3.309,0,0,1,1.188-1.368,2.99,2.99,0,0,1,1.654-.494,2.8,2.8,0,0,1,2.266.96,4.158,4.158,0,0,1,.808,2.749v.532H789.1a2.652,2.652,0,0,0,.646,1.785,2.029,2.029,0,0,0,1.572.68,2.223,2.223,0,0,0,1.147-.276,2.886,2.886,0,0,0,.822-.732l.78.608A3.139,3.139,0,0,1,791.245,95.965Zm-.159-6.7a1.706,1.706,0,0,0-1.3.563,2.743,2.743,0,0,0-.649,1.579h3.744v-.1a2.441,2.441,0,0,0-.525-1.51A1.606,1.606,0,0,0,791.086,89.265Z" transform="translate(-668.989 -85.218)" fill="#3f3e3c"/>
      <path id="Trazado_774" data-name="Trazado 774" d="M805.87,89.5a3.8,3.8,0,0,0-.628-.049,1.685,1.685,0,0,0-1.706,1.071v5.305h-1.278V88.353H803.5l.021.864a1.991,1.991,0,0,1,1.783-1,1.3,1.3,0,0,1,.566.1Z" transform="translate(-675.608 -85.218)" fill="#3f3e3c"/>
      <path id="Trazado_775" data-name="Trazado 775" d="M811.11,84.184a.763.763,0,0,1,.19-.525.713.713,0,0,1,.563-.214.726.726,0,0,1,.566.214.756.756,0,0,1,.193.525.73.73,0,0,1-.193.518.738.738,0,0,1-.566.207.725.725,0,0,1-.563-.207A.737.737,0,0,1,811.11,84.184Zm1.382,9.456h-1.278V86.166h1.278Z" transform="translate(-679.667 -83.031)" fill="#3f3e3c"/>
      <path id="Trazado_776" data-name="Trazado 776" d="M821.87,95.827a2.673,2.673,0,0,1-.18-.787,2.849,2.849,0,0,1-2.127.926,2.638,2.638,0,0,1-1.814-.625,2.022,2.022,0,0,1-.707-1.585,2.115,2.115,0,0,1,.887-1.814,4.19,4.19,0,0,1,2.5-.646h1.243v-.587a1.438,1.438,0,0,0-.4-1.067,1.612,1.612,0,0,0-1.182-.4,1.863,1.863,0,0,0-1.146.346,1.016,1.016,0,0,0-.462.836h-1.286a1.763,1.763,0,0,1,.4-1.081,2.708,2.708,0,0,1,1.078-.825,3.628,3.628,0,0,1,1.5-.3,2.955,2.955,0,0,1,2.024.646,2.33,2.33,0,0,1,.76,1.778v3.44a4.2,4.2,0,0,0,.263,1.637v.11Zm-2.12-.974a2.244,2.244,0,0,0,1.139-.311,1.883,1.883,0,0,0,.78-.808V92.2h-1q-2.349,0-2.349,1.374a1.163,1.163,0,0,0,.4.94A1.538,1.538,0,0,0,819.75,94.853Z" transform="translate(-682.386 -85.218)" fill="#3f3e3c"/>
      <path id="Trazado_777" data-name="Trazado 777" d="M832.855,88.353l.042.94a2.723,2.723,0,0,1,2.238-1.078q2.37,0,2.39,2.674v4.938h-1.278V90.882a1.721,1.721,0,0,0-.37-1.2,1.481,1.481,0,0,0-1.129-.387,1.847,1.847,0,0,0-1.092.331,2.251,2.251,0,0,0-.732.87v5.326h-1.278V88.353Z" transform="translate(-689.081 -85.218)" fill="#3f3e3c"/>
    </g>
    <line id="Línea_26" data-name="Línea 26" y2="23.287" transform="translate(324.769 51.911)" fill="none" stroke="#3f3e3c" stroke-miterlimit="10" stroke-width="1" opacity="0.9"/>
  </g>
</svg>
