<svg xmlns="http://www.w3.org/2000/svg" width="44.5" height="44.5" viewBox="0 0 44.5 44.5">
  <g id="outline-assignment-24px" opacity="0.5">
    <path id="Trazado_802" data-name="Trazado 802" d="M0,0H44.5V44.5H0Z" fill="none"/>
    <path id="Trazado_803" data-name="Trazado 803" d="M10.417,26.958H23.4v3.708H10.417Zm0-7.417H28.958V23.25H10.417Zm0-7.417H28.958v3.708H10.417Zm22.25-7.417h-7.75a5.54,5.54,0,0,0-10.457,0H6.708a3.248,3.248,0,0,0-.742.074A3.746,3.746,0,0,0,3.3,6.989,3.572,3.572,0,0,0,3,8.417V34.375a3.8,3.8,0,0,0,.3,1.446,3.93,3.93,0,0,0,.8,1.187,3.723,3.723,0,0,0,1.873,1.02,4.812,4.812,0,0,0,.742.056H32.667a3.719,3.719,0,0,0,3.708-3.708V8.417A3.719,3.719,0,0,0,32.667,4.708ZM19.688,4.245A1.391,1.391,0,1,1,18.3,5.635,1.4,1.4,0,0,1,19.688,4.245Zm12.979,30.13H6.708V8.417H32.667Z" transform="translate(2.562 0.854)" fill="#801e7a"/>
  </g>
</svg>
