<svg xmlns="http://www.w3.org/2000/svg" width="24" height="24" viewBox="0 0 24 24">
  <g id="iNSTAGRAM" transform="translate(-599 -642)">
    <g id="Grupo_1114" data-name="Grupo 1114">
      <rect id="Rectángulo_915" data-name="Rectángulo 915" width="24" height="24" transform="translate(599 642)" fill="#fff"/>
      <g id="instagram-logo" transform="translate(601 644)">
        <path id="Trazado_847" data-name="Trazado 847" d="M13.8,0H5.26A5.266,5.266,0,0,0,0,5.26V13.8a5.266,5.266,0,0,0,5.26,5.26H13.8a5.266,5.266,0,0,0,5.261-5.26V5.26A5.266,5.266,0,0,0,13.8,0Zm3.569,13.8A3.573,3.573,0,0,1,13.8,17.371H5.26A3.573,3.573,0,0,1,1.691,13.8V5.26A3.573,3.573,0,0,1,5.26,1.691H13.8A3.573,3.573,0,0,1,17.371,5.26V13.8Z" fill="#af72a9"/>
        <path id="Trazado_848" data-name="Trazado 848" d="M45.88,40.97a4.912,4.912,0,1,0,4.912,4.912A4.917,4.917,0,0,0,45.88,40.97Zm0,8.132a3.22,3.22,0,1,1,3.221-3.22A3.224,3.224,0,0,1,45.88,49.1Z" transform="translate(-36.349 -36.351)" fill="#af72a9"/>
        <path id="Trazado_849" data-name="Trazado 849" d="M120.161,28.251a1.24,1.24,0,1,0,.877.363A1.245,1.245,0,0,0,120.161,28.251Z" transform="translate(-105.512 -25.066)" fill="#af72a9"/>
      </g>
    </g>
  </g>
</svg>
