<svg xmlns="http://www.w3.org/2000/svg" width="51.154" height="42.232" viewBox="0 0 51.154 42.232">
  <path id="_003-twitter" data-name="003-twitter" d="M19.463,42.232c-8.538,0-15.285-1.492-18.514-4.092L.887,38.09.83,38.033a2.626,2.626,0,0,1-.689-2.761l.03-.082a2.674,2.674,0,0,1,2.44-1.679,22.043,22.043,0,0,0,5.829-.8A11.063,11.063,0,0,1,2.61,25.97a2.388,2.388,0,0,1,.833-2.785,2.437,2.437,0,0,1,.727-.372A16.133,16.133,0,0,1,.862,16.886l-.02-.066-.014-.068A2.487,2.487,0,0,1,1.98,14.084a2.476,2.476,0,0,1,1.179-.333,12.473,12.473,0,0,1-.942-2.875A12.028,12.028,0,0,1,3.5,2.861l.317-.635a1.769,1.769,0,0,1,2.833-.46l.578.579c4.566,4.787,8.656,7.058,15.727,8.612a12.529,12.529,0,0,1,3.382-7.223A11.868,11.868,0,0,1,34.808,0h.021c2.342,0,5.247,1.337,7,2.28C43.34,1.788,45.156,1.024,47.04.217A2.379,2.379,0,0,1,49.7.685a2.338,2.338,0,0,1,.507,2.569q-.205.572-.465,1.122a2.382,2.382,0,0,1,.694.478,2.573,2.573,0,0,1,.64,2.4l-.023.082a9.813,9.813,0,0,1-3.943,5.411C46.8,29.065,34.52,42.232,19.463,42.232ZM3.826,36.47c3.042,1.721,8.84,2.762,15.637,2.762a23.423,23.423,0,0,0,17.365-7.9,28.3,28.3,0,0,0,7.289-19.206v-.082a1.767,1.767,0,0,1,.943-1.564,6.37,6.37,0,0,0,2.756-3.05,1.769,1.769,0,0,1-1.7-2.786,9.737,9.737,0,0,0,.669-1.058c-1.627.683-3.172,1.3-4.513,1.7a1.919,1.919,0,0,1-1.476-.159A14.615,14.615,0,0,0,34.838,3a9.327,9.327,0,0,0-8.971,9.452,1.77,1.77,0,0,1-2.112,1.736C15.6,12.583,10.77,10.174,5.746,5.125A8.856,8.856,0,0,0,5.162,10.3a10.946,10.946,0,0,0,2.6,5.037,1.769,1.769,0,0,1-1.785,2.876,8.1,8.1,0,0,1-1.649-.634,14.944,14.944,0,0,0,5.123,5.943,1.769,1.769,0,0,1-1.131,3.223,7.953,7.953,0,0,1-2.348-.508A8.067,8.067,0,0,0,12.406,30.8a1.769,1.769,0,0,1,.526,3.307A21.256,21.256,0,0,1,3.827,36.47Zm0,0" transform="translate(0.001 0)" fill="#fff"/>
</svg>
