<svg xmlns="http://www.w3.org/2000/svg" width="29.034" height="51.153" viewBox="0 0 29.034 51.153">
  <path id="_004-facebook" data-name="004-facebook" d="M18.434,51.153H10.242a2.484,2.484,0,0,1-2.481-2.481V30.195H2.981A2.484,2.484,0,0,1,.5,27.713V19.8a2.484,2.484,0,0,1,2.481-2.481H7.761V13.35A13.5,13.5,0,0,1,11.33,3.678,12.857,12.857,0,0,1,20.809,0l6.247.01a2.485,2.485,0,0,1,2.477,2.481V9.842a2.484,2.484,0,0,1-2.481,2.481l-4.206,0c-1.283,0-1.609.257-1.679.336-.115.131-.252.5-.252,1.521v3.132h5.822a2.522,2.522,0,0,1,1.228.312,2.49,2.49,0,0,1,1.277,2.17l0,7.917a2.484,2.484,0,0,1-2.481,2.481H20.915V48.672a2.484,2.484,0,0,1-2.482,2.481Zm-7.674-3h7.157v-19.3A1.659,1.659,0,0,1,19.573,27.2h6.667l0-6.882h-6.67a1.658,1.658,0,0,1-1.656-1.657V14.182a5.107,5.107,0,0,1,1-3.505,5.083,5.083,0,0,1,3.926-1.35l3.689,0V3.008L20.807,3C14.61,3,10.76,6.965,10.76,13.35v5.307A1.659,1.659,0,0,1,9.1,20.313H3.5V27.2H9.1a1.658,1.658,0,0,1,1.656,1.657ZM27.051,3.009h0Zm0,0" transform="translate(-0.5 0)" fill="#fff"/>
</svg>
