<svg xmlns="http://www.w3.org/2000/svg" xmlns:xlink="http://www.w3.org/1999/xlink" width="124" height="138" viewBox="0 0 124 138">
  <defs>
    <filter id="Rectángulo_536" x="0" y="0" width="124" height="138" filterUnits="userSpaceOnUse">
      <feOffset dy="3" input="SourceAlpha"/>
      <feGaussianBlur stdDeviation="3" result="blur"/>
      <feFlood flood-opacity="0.161"/>
      <feComposite operator="in" in2="blur"/>
      <feComposite in="SourceGraphic"/>
    </filter>
  </defs>
  <g id="Icono_Infome" data-name="Icono Infome" transform="translate(-914 -1254)">
    <g id="Grupo_249" data-name="Grupo 249" transform="translate(8 -58)">
      <g id="Grupo_220" data-name="Grupo 220" transform="translate(389 -515)">
        <g transform="matrix(1, 0, 0, 1, 517, 1827)" filter="url(#Rectángulo_536)">
          <rect id="Rectángulo_536-2" data-name="Rectángulo 536" width="106" height="120" rx="11" transform="translate(9 6)" fill="#fff"/>
        </g>
        <rect id="Rectángulo_537" data-name="Rectángulo 537" width="36.891" height="7.5" rx="3.75" transform="translate(535 1856.226)" fill="#b7bf10"/>
        <rect id="Rectángulo_546" data-name="Rectángulo 546" width="36.891" height="7.5" rx="3.75" transform="translate(535 1879.452)" fill="#00b2a9" opacity="0.6"/>
        <rect id="Rectángulo_551" data-name="Rectángulo 551" width="36.891" height="7.5" rx="3.75" transform="translate(586 1879.452)" fill="#00b2a9" opacity="0.6"/>
        <rect id="Rectángulo_547" data-name="Rectángulo 547" width="36.891" height="7.5" rx="3.75" transform="translate(535 1902.677)" fill="#00b2a9" opacity="0.6"/>
        <rect id="Rectángulo_550" data-name="Rectángulo 550" width="36.891" height="7.5" rx="3.75" transform="translate(586 1902.677)" fill="#00b2a9" opacity="0.6"/>
        <rect id="Rectángulo_549" data-name="Rectángulo 549" width="36.891" height="7.5" rx="3.75" transform="translate(586 1927.903)" fill="#00b2a9" opacity="0.6"/>
        <rect id="Rectángulo_545" data-name="Rectángulo 545" width="36.891" height="7.5" rx="3.75" transform="translate(586 1856.226)" fill="#00b2a9"/>
      </g>
      <g id="Grupo_248" data-name="Grupo 248" transform="translate(0 8)">
        <line id="Línea_5" data-name="Línea 5" x2="4.024" y2="5.03" transform="translate(936.648 1407.792)" fill="none" stroke="#b7bf10" stroke-linecap="round" stroke-width="8"/>
        <line id="Línea_6" data-name="Línea 6" x1="9.725" y2="9.725" transform="translate(940.673 1403.097)" fill="none" stroke="#b7bf10" stroke-linecap="round" stroke-width="8"/>
      </g>
    </g>
  </g>
</svg>
