<svg xmlns="http://www.w3.org/2000/svg" xmlns:xlink="http://www.w3.org/1999/xlink" width="61.75" height="61.75" viewBox="0 0 61.75 61.75">
  <defs>
    <clipPath id="clip-path">
      <rect width="61.75" height="61.75" fill="none"/>
    </clipPath>
  </defs>
  <g id="Sucursales-main" clip-path="url(#clip-path)">
    <g id="outline-place-24px" opacity="0.8">
      <path id="Trazado_474" data-name="Trazado 474" d="M0,0H61.75V61.75H0Z" fill="none"/>
      <path id="Trazado_475" data-name="Trazado 475" d="M23.01,2A18,18,0,0,0,5,20.01C5,33.518,23.01,53.458,23.01,53.458s18.01-19.94,18.01-33.448A18,18,0,0,0,23.01,2ZM10.146,20.01a12.865,12.865,0,0,1,25.729,0c0,7.41-7.41,18.5-12.865,25.42C17.659,38.561,10.146,27.343,10.146,20.01Z" transform="translate(7.865 3.146)" fill="#00b2a9" opacity="0.68"/>
      <path id="Trazado_489" data-name="Trazado 489" d="M6.432,0A6.432,6.432,0,1,1,0,6.432,6.432,6.432,0,0,1,6.432,0Z" transform="translate(24.443 16.724)" fill="#b7bf10"/>
    </g>
  </g>
</svg>
