<svg xmlns="http://www.w3.org/2000/svg" xmlns:xlink="http://www.w3.org/1999/xlink" width="246" height="246" viewBox="0 0 246 246">
  <defs>
    <filter id="Elipse_65" x="0" y="0" width="246" height="246" filterUnits="userSpaceOnUse">
      <feOffset dy="3" input="SourceAlpha"/>
      <feGaussianBlur stdDeviation="10" result="blur"/>
      <feFlood flood-opacity="0.149"/>
      <feComposite operator="in" in2="blur"/>
      <feComposite in="SourceGraphic"/>
    </filter>
    <filter id="Elipse_65-2" x="26.98" y="26.531" width="192.13" height="192.13" filterUnits="userSpaceOnUse">
      <feOffset dy="3" input="SourceAlpha"/>
      <feGaussianBlur stdDeviation="10" result="blur-2"/>
      <feFlood flood-opacity="0.149"/>
      <feComposite operator="in" in2="blur-2"/>
      <feComposite in="SourceGraphic"/>
    </filter>
  </defs>
  <g id="Circulo_foto" data-name="Circulo foto" transform="translate(-1044 -253)">
    <g transform="matrix(1, 0, 0, 1, 1044, 253)" filter="url(#Elipse_65)">
      <circle id="Elipse_65-3" data-name="Elipse 65" cx="93" cy="93" r="93" transform="translate(30 27)" fill="#fff"/>
    </g>
    <g id="Grupo_1050" data-name="Grupo 1050">
      <circle id="Elipse_99" data-name="Elipse 99" cx="85.711" cy="85.711" r="85.711" transform="translate(1081.5 287.5)" fill="#b1aaaa" opacity="0.44"/>
      <g transform="matrix(1, 0, 0, 1, 1044, 253)" filter="url(#Elipse_65-2)">
        <circle id="Elipse_65-4" data-name="Elipse 65" cx="66.065" cy="66.065" r="66.065" transform="translate(56.98 53.53)" fill="#fff"/>
      </g>
      <g id="Componente_1" data-name="Componente 1" transform="translate(1135.211 340.944)">
        <path id="Trazado_477" data-name="Trazado 477" d="M54.7,15.352H46.706l-4.614-5.04H26.963v5.04h12.91l4.614,5.04H54.7V50.631H14.355V27.952H9.312V50.631a5.056,5.056,0,0,0,5.043,5.04H54.7a5.056,5.056,0,0,0,5.043-5.04V20.392A5.056,5.056,0,0,0,54.7,15.352ZM21.92,35.512a12.607,12.607,0,1,0,12.607-12.6A12.608,12.608,0,0,0,21.92,35.512Zm12.607-7.56a7.56,7.56,0,1,1-7.564,7.56A7.584,7.584,0,0,1,34.527,27.952Z" transform="translate(-1.425 -2.425)" fill="#801e7a" opacity="0.6"/>
        <path id="Trazado_478" data-name="Trazado 478" d="M13.146,14.146h7.888V8.888H13.146V1H7.888V8.888H0v5.258H7.888v7.888h5.258Z" transform="translate(0 -1)" fill="#801e7a"/>
      </g>
    </g>
  </g>
</svg>
