<svg xmlns="http://www.w3.org/2000/svg" width="46" height="46" viewBox="0 0 46 46">
  <g id="info_Usuario" data-name="info Usuario" transform="translate(-554 -635)">
    <g id="Logo_info_Usuario" data-name="Logo info Usuario" opacity="0.7">
      <circle id="Elipse_90" data-name="Elipse 90" cx="23" cy="23" r="23" transform="translate(554 635)" fill="#6d2077" opacity="0.8"/>
      <g id="Grupo_878" data-name="Grupo 878" transform="translate(567.574 642.541)">
        <g id="Elipse_17" data-name="Elipse 17" transform="translate(2.426)" fill="none" stroke="#fff" stroke-width="2">
          <ellipse cx="6.47" cy="6.47" rx="6.47" ry="6.47" stroke="none"/>
          <ellipse cx="6.47" cy="6.47" rx="5.47" ry="5.47" fill="none"/>
        </g>
        <g id="Rectángulo_61" data-name="Rectángulo 61" transform="translate(0 13.748)" fill="none" stroke="#fff" stroke-width="2">
          <path d="M9.3,0h0a9.3,9.3,0,0,1,9.3,9.3v1.444a1.55,1.55,0,0,1-1.55,1.55H1.55A1.55,1.55,0,0,1,0,10.745V9.3A9.3,9.3,0,0,1,9.3,0Z" stroke="none"/>
          <path d="M9.3,1h0a8.3,8.3,0,0,1,8.3,8.3v1.24a.755.755,0,0,1-.755.755H1.755A.755.755,0,0,1,1,10.54V9.3A8.3,8.3,0,0,1,9.3,1Z" fill="none"/>
        </g>
      </g>
    </g>
  </g>
</svg>
