<svg xmlns="http://www.w3.org/2000/svg" width="50" height="50" viewBox="0 0 50 50">
  <g id="ProductosyServicios" opacity="0.5">
    <path id="Trazado_517" data-name="Trazado 517" d="M0,0H50V50H0Z" fill="none"/>
    <path id="Trazado_518" data-name="Trazado 518" d="M34.333,5H5.167A4.166,4.166,0,0,0,1,9.167v18.75H5.167a6.25,6.25,0,1,0,12.5,0H29.125a6.25,6.25,0,1,0,12.5,0h5.208V17.5ZM5.167,17.5V9.167H13.5V17.5Zm6.25,13.542a3.125,3.125,0,1,1,3.125-3.125A3.121,3.121,0,0,1,11.417,31.042ZM26,17.5H17.667V9.167H26Zm9.375,13.542A3.125,3.125,0,1,1,38.5,27.917,3.121,3.121,0,0,1,35.375,31.042ZM30.167,17.5V9.167H32.25L40.583,17.5Z" transform="translate(1.083 5.417)" fill="#801e7a"/>
  </g>
</svg>
