<svg xmlns="http://www.w3.org/2000/svg" width="36.021" height="51.458" viewBox="0 0 36.021 51.458">
  <g id="Sucursal_Main" data-name="Sucursal Main" transform="translate(-620.78 -1069.396)">
    <path id="Trazado_513" data-name="Trazado 513" d="M23.01,2A18,18,0,0,0,5,20.01C5,33.518,23.01,53.458,23.01,53.458s18.01-19.94,18.01-33.448A18,18,0,0,0,23.01,2ZM10.146,20.01a12.865,12.865,0,0,1,25.729,0c0,7.41-7.41,18.5-12.865,25.42C17.659,38.561,10.146,27.343,10.146,20.01Z" transform="translate(615.78 1067.396)" fill="#00b2a9" opacity="0.68"/>
    <path id="Trazado_514" data-name="Trazado 514" d="M6.432,0A6.432,6.432,0,1,1,0,6.432,6.432,6.432,0,0,1,6.432,0Z" transform="translate(632.358 1080.974)" fill="#00b2a9"/>
  </g>
</svg>
