<svg id="outline-phone_iphone-24px" xmlns="http://www.w3.org/2000/svg" width="26" height="26" viewBox="0 0 26 26">
  <path id="Trazado_480" data-name="Trazado 480" d="M0,0H26V26H0Z" fill="none"/>
  <path id="Trazado_481" data-name="Trazado 481" d="M17.115,1H7.885A2.81,2.81,0,0,0,5,3.727V22.273A2.81,2.81,0,0,0,7.885,25h9.231A2.81,2.81,0,0,0,20,22.273V3.727A2.81,2.81,0,0,0,17.115,1ZM12.5,23.909a1.639,1.639,0,1,1,1.731-1.636A1.683,1.683,0,0,1,12.5,23.909Zm5.192-4.364H7.308V4.273H17.692Z" fill="#00b2a9"/>
</svg>
