<svg xmlns="http://www.w3.org/2000/svg" width="54" height="54" viewBox="0 0 54 54">
  <g id="Youtube" transform="translate(-763 -5586)">
    <g id="Grupo_264" data-name="Grupo 264" transform="translate(5)">
      <g id="Rectángulo_597" data-name="Rectángulo 597" transform="translate(758 5586)" fill="none" stroke="#fff" stroke-width="3">
        <rect width="54" height="54" rx="10" stroke="none"/>
        <rect x="1.5" y="1.5" width="51" height="51" rx="8.5" fill="none"/>
      </g>
    </g>
    <g id="Polígono_2" data-name="Polígono 2" transform="translate(808 5603) rotate(90)" fill="none">
      <path d="M6.812,8.781a4,4,0,0,1,7.376,0l4.482,10.67A4,4,0,0,1,14.982,25H6.018a4,4,0,0,1-3.688-5.549Z" stroke="none"/>
      <path d="M 10.5 9.329704284667969 C 10.25179004669189 9.329704284667969 9.801950454711914 9.409313201904297 9.578020095825195 9.942483901977539 L 5.096500396728516 20.61276245117188 C 4.915870666503906 21.04282379150391 5.074819564819336 21.38677406311035 5.185640335083008 21.55352401733398 C 5.296469688415527 21.72026443481445 5.552029609680176 22.00000381469727 6.01848030090332 22.00000381469727 L 14.98151969909668 22.00000381469727 C 15.44796943664551 22.00000381469727 15.70352935791016 21.72026443481445 15.81435966491699 21.55352401733398 C 15.92518043518066 21.38677406311035 16.08412933349609 21.04282379150391 15.90349960327148 20.61276245117188 L 11.4219799041748 9.942483901977539 C 11.19804954528809 9.409313201904297 10.74820995330811 9.329704284667969 10.5 9.329704284667969 M 10.5 6.329708099365234 C 12.00081539154053 6.329708099365234 13.50162982940674 7.146734237670898 14.1879301071167 8.780784606933594 L 18.6694507598877 19.45106506347656 C 19.77662086486816 22.08718490600586 17.84070014953613 25.00000381469727 14.98151969909668 25.00000381469727 L 6.01848030090332 25.00000381469727 C 3.159299850463867 25.00000381469727 1.223379135131836 22.08718490600586 2.330549240112305 19.45106506347656 L 6.812069892883301 8.780784606933594 C 7.498370170593262 7.146734237670898 8.999184608459473 6.329708099365234 10.5 6.329708099365234 Z" stroke="none" fill="#fff"/>
    </g>
  </g>
</svg>
