<svg xmlns="http://www.w3.org/2000/svg" width="24" height="24" viewBox="0 0 24 24">
  <g id="fACEBOOK" transform="translate(-617 -606)">
    <rect id="Rectángulo_914" data-name="Rectángulo 914" width="24" height="24" transform="translate(617 606)" fill="#fff"/>
    <g id="facebook-logo" transform="translate(601.923 609)">
      <path id="Trazado_850" data-name="Trazado 850" d="M31.506,0l-2.35,0A4.127,4.127,0,0,0,24.81,4.46V6.516H22.447a.37.37,0,0,0-.37.37V9.866a.37.37,0,0,0,.37.37H24.81v7.518a.369.369,0,0,0,.37.37h3.083a.37.37,0,0,0,.37-.37V10.235h2.763a.369.369,0,0,0,.37-.37V6.886a.37.37,0,0,0-.37-.37H28.632V4.773c0-.838.2-1.263,1.291-1.263h1.583a.369.369,0,0,0,.369-.37V.373A.37.37,0,0,0,31.506,0Z" fill="#af72a9"/>
    </g>
  </g>
</svg>
