<svg xmlns="http://www.w3.org/2000/svg" width="23" height="23" viewBox="0 0 23 23">
  <g id="Trazado_955" data-name="Trazado 955" fill="none">
    <path d="M11.5,0A11.5,11.5,0,1,1,0,11.5,11.5,11.5,0,0,1,11.5,0Z" stroke="none"/>
    <path d="M 11.5 2 C 6.261680603027344 2 2 6.261680603027344 2 11.5 C 2 16.73831939697266 6.261680603027344 21 11.5 21 C 16.73831939697266 21 21 16.73831939697266 21 11.5 C 21 6.261680603027344 16.73831939697266 2 11.5 2 M 11.5 0 C 17.85127067565918 0 23 5.14872932434082 23 11.5 C 23 17.85127067565918 17.85127067565918 23 11.5 23 C 5.14872932434082 23 0 17.85127067565918 0 11.5 C 0 5.14872932434082 5.14872932434082 0 11.5 0 Z" stroke="none" fill="#b1aaaa"/>
  </g>
</svg>
