<svg xmlns="http://www.w3.org/2000/svg" width="36" height="36" viewBox="0 0 36 36">
  <g id="CONTRASEÑA_LILA" data-name="CONTRASEÑA LILA" transform="translate(-758 -766)">
    <g id="Grupo_817" data-name="Grupo 817" transform="translate(758 766)" opacity="0.7">
      <circle id="Elipse_90" data-name="Elipse 90" cx="18" cy="18" r="18" transform="translate(0 0)" fill="#6d2077" opacity="0.8"/>
    </g>
    <g id="Grupo_818" data-name="Grupo 818" transform="translate(768.927 771.88)">
      <g id="Grupo_901" data-name="Grupo 901">
        <g id="Rectángulo_61" data-name="Rectángulo 61" transform="translate(0 7.852)" fill="none" stroke="#fff" stroke-width="2">
          <rect width="14.899" height="14.68" rx="2" stroke="none"/>
          <rect x="1" y="1" width="12.899" height="12.68" rx="1" fill="none"/>
        </g>
        <g id="Rectángulo_71" data-name="Rectángulo 71" transform="translate(2.416)" fill="none" stroke="#fff" stroke-width="2">
          <path d="M5.033,0h0a5.033,5.033,0,0,1,5.033,5.033V9.009a.839.839,0,0,1-.839.839H.839A.839.839,0,0,1,0,9.009V5.033A5.033,5.033,0,0,1,5.033,0Z" stroke="none"/>
          <path d="M5.033,1h0A4.033,4.033,0,0,1,9.067,5.033V8.481a.367.367,0,0,1-.367.367H1.367A.367.367,0,0,1,1,8.481V5.033A4.033,4.033,0,0,1,5.033,1Z" fill="none"/>
        </g>
        <path id="Unión_1" data-name="Unión 1" d="M1.208,4.959V4.1a2.162,2.162,0,1,1,1.813.044v.812a.906.906,0,0,1-1.813,0Z" transform="translate(5.436 12.544)" fill="#fff"/>
      </g>
    </g>
  </g>
</svg>
